<?xml version="1.0" standalone="no"?>
<!DOCTYPE svg PUBLIC "-//W3C//DTD SVG 20010904//EN"
 "http://www.w3.org/TR/2001/REC-SVG-20010904/DTD/svg10.dtd">
<svg version="1.0" xmlns="http://www.w3.org/2000/svg"
 width="1920.000000pt" height="2168.000000pt" viewBox="0 0 1920.000000 2168.000000"
 preserveAspectRatio="xMidYMid meet">

<g transform="translate(0.000000,2168.000000) scale(0.100000,-0.100000)"
fill="#000000" stroke="none">
<path d="M12768 20494 c-4 -3 -3 -15 2 -25 8 -15 6 -18 -18 -21 -35 -4 -35
-22 1 -26 23 -3 28 -8 25 -25 -2 -17 -11 -23 -36 -25 -40 -4 -38 -25 3 -32
l28 -5 -27 -32 c-34 -40 -25 -65 11 -31 14 13 29 33 34 46 6 16 17 22 38 22
28 0 30 -3 33 -42 4 -59 28 -63 28 -4 0 41 2 45 27 48 39 4 42 28 4 28 -26 0
-31 4 -31 25 0 20 5 25 25 25 16 0 25 6 25 15 0 9 -9 15 -25 15 -22 0 -25 3
-19 25 4 16 2 25 -5 25 -6 0 -17 -11 -23 -25 -15 -33 -46 -32 -73 1 -11 14
-23 22 -27 18z m93 -78 c15 -20 -4 -46 -32 -46 -24 0 -29 4 -29 23 0 13 2 26
5 29 8 8 49 4 56 -6z"/>
<path d="M13065 20468 c-13 -43 -35 -49 -35 -9 0 17 -4 31 -9 31 -9 0 -12 -8
-27 -62 -4 -14 1 -18 25 -18 17 0 31 -2 31 -5 0 -11 -33 -71 -57 -102 -14 -19
-20 -34 -14 -37 11 -7 36 15 63 53 15 22 18 22 32 8 21 -21 21 -23 -14 -37
-16 -7 -30 -16 -30 -20 0 -18 16 -18 51 1 39 19 39 19 78 0 35 -19 51 -19 51
-1 0 4 -13 13 -30 20 -34 14 -35 16 -15 50 24 43 19 50 -35 50 -27 0 -50 5
-50 10 0 6 26 10 59 10 59 0 86 12 55 24 -9 4 -14 9 -10 13 8 9 -24 43 -41 43
-18 0 -17 -19 2 -26 27 -11 16 -24 -20 -24 -33 0 -36 2 -33 26 4 39 -16 40
-27 2z m75 -123 c-7 -8 -18 -15 -25 -15 -7 0 -18 7 -25 15 -11 13 -7 15 25 15
32 0 36 -2 25 -15z"/>
<path d="M13338 20488 c-3 -7 -22 -11 -46 -10 -40 2 -42 1 -42 -28 0 -17 5
-30 10 -30 6 0 10 7 10 15 0 12 16 15 85 15 50 0 85 -4 85 -10 0 -5 7 -10 15
-10 9 0 15 9 15 24 0 22 -4 24 -40 22 -23 -1 -49 3 -58 10 -21 17 -29 17 -34
2z"/>
<path d="M13523 20455 c-1 -34 0 -35 38 -35 54 0 49 -18 -6 -22 -25 -2 -44 -7
-43 -13 2 -5 11 -10 21 -9 26 1 20 -15 -8 -22 -28 -7 -33 -22 -10 -30 9 -4 15
-19 15 -38 0 -30 2 -31 40 -31 l40 0 0 42 c0 40 -2 43 -27 43 l-28 0 32 21
c31 20 33 20 65 2 l33 -18 -27 -3 c-26 -3 -28 -7 -28 -45 l0 -42 45 0 c44 0
45 1 45 32 0 17 5 35 10 38 17 11 11 24 -15 31 -26 7 -24 26 2 22 9 -2 18 3
20 10 3 7 -4 12 -16 12 -12 0 -21 5 -21 10 0 6 5 10 10 10 6 0 10 16 10 35 0
35 0 35 -45 35 -45 0 -45 0 -45 -35 0 -28 4 -35 20 -35 11 0 20 -4 20 -10 0
-14 -33 -13 -48 2 -7 7 -12 27 -12 45 0 32 -1 33 -43 33 -42 0 -43 -1 -44 -35z
m65 -2 c2 -8 -5 -13 -17 -13 -12 0 -21 6 -21 16 0 18 31 15 38 -3z m110 0 c2
-8 -5 -13 -17 -13 -12 0 -21 6 -21 16 0 18 31 15 38 -3z m-110 -150 c-2 -10
-10 -18 -18 -18 -8 0 -16 8 -18 18 -2 12 3 17 18 17 15 0 20 -5 18 -17z m112
3 c0 -18 -30 -30 -43 -17 -5 5 -6 14 -3 20 10 16 46 13 46 -3z"/>
<path d="M12205 20458 c-3 -7 -6 -44 -7 -83 -3 -70 -3 -70 -31 -68 -37 3 -30
-21 7 -25 47 -6 56 12 56 104 0 51 -4 84 -10 84 -6 0 -13 -6 -15 -12z"/>
<path d="M13283 20422 c-28 -14 -46 -42 -28 -42 13 0 62 30 74 44 18 22 -3 20
-46 -2z"/>
<path d="M13380 20433 c1 -15 73 -54 82 -45 6 6 -4 18 -25 31 -35 21 -57 27
-57 14z"/>
<path d="M12277 20413 c-16 -15 -5 -22 29 -20 22 1 39 -3 41 -10 3 -8 -4 -13
-19 -13 -31 0 -68 -27 -68 -49 0 -29 23 -41 73 -39 l47 2 0 49 c0 69 -12 87
-59 87 -21 0 -41 -3 -44 -7z m71 -85 c-4 -31 -58 -40 -58 -9 0 20 12 29 43 30
14 1 18 -5 15 -21z"/>
<path d="M12409 20398 c31 -80 52 -118 64 -118 8 0 26 28 41 63 30 71 31 77
14 77 -7 0 -23 -24 -34 -52 l-22 -52 -22 52 c-12 28 -29 52 -36 52 -10 0 -11
-6 -5 -22z"/>
<path d="M12575 20411 c-7 -12 12 -24 25 -16 12 7 50 -3 50 -14 0 -4 -16 -12
-37 -17 -80 -20 -70 -78 16 -81 l51 -1 0 53 c0 35 -5 59 -16 69 -17 17 -79 22
-89 7z m73 -83 c-4 -28 -45 -38 -55 -13 -7 19 12 35 40 35 13 0 18 -6 15 -22z"/>
<path d="M13331 20397 c-6 -8 -29 -22 -51 -32 -43 -19 -52 -35 -20 -35 16 0
20 -7 20 -37 l0 -38 80 0 80 0 0 38 c0 26 4 37 15 37 26 0 15 14 -37 48 -55
35 -70 39 -87 19z m35 -55 c-59 -4 -66 2 -35 27 23 19 24 19 54 -2 l30 -22
-49 -3z m54 -37 c0 -15 -8 -18 -60 -18 -52 0 -60 3 -60 18 0 12 13 15 60 15
47 0 60 -3 60 -15z"/>
<path d="M11848 20070 c-26 -3 -60 -15 -75 -26 -56 -42 -58 -51 -61 -404 -2
-240 -6 -326 -15 -332 -7 -5 -58 -8 -113 -6 l-102 1 -3 191 c-4 217 -12 242
-85 283 l-39 23 -695 0 c-661 0 -697 -1 -737 -19 -70 -32 -77 -56 -83 -276
l-5 -190 -70 -2 c-1151 -37 -2061 -655 -2752 -1872 -492 -866 -864 -2026
-1128 -3522 -30 -172 -55 -319 -55 -326 0 -7 8 -13 19 -13 15 0 20 10 26 48 3
26 20 124 36 217 293 1708 741 3015 1343 3915 393 589 847 1002 1376 1251 336
159 728 251 1110 261 l95 2 5 -199 c5 -185 7 -203 27 -236 42 -67 6 -64 778
-67 l700 -2 45 22 c76 39 84 67 88 301 l4 197 114 0 114 0 0 -323 c0 -315 1
-324 23 -367 13 -27 35 -50 57 -62 33 -17 103 -18 1542 -18 999 0 1508 3 1508
10 0 7 -509 10 -1507 10 -1177 0 -1513 3 -1532 13 -13 6 -34 25 -45 40 -20 27
-21 41 -24 363 l-3 334 527 0 c290 0 525 3 521 6 -3 3 -232 5 -509 5 -277 -1
-512 1 -521 5 -16 6 -17 34 -17 325 0 364 2 374 75 409 40 20 63 20 1076 21
569 0 1029 3 1023 5 -16 7 -2000 10 -2056 4z m-479 -323 c13 -6 34 -25 45 -40
20 -28 21 -38 21 -422 0 -384 -1 -394 -21 -422 -11 -15 -32 -34 -45 -40 -38
-20 -1377 -18 -1424 1 -64 27 -65 32 -65 461 0 325 2 391 15 415 32 61 4 59
760 59 528 1 696 -2 714 -12z"/>
<path d="M10340 19480 c0 -5 -16 -10 -35 -10 -28 0 -35 -4 -35 -20 0 -16 7
-20 35 -20 l35 0 0 -60 0 -60 -35 0 c-28 0 -35 -4 -35 -19 0 -15 8 -21 33 -23
l32 -3 -38 -20 c-34 -19 -36 -22 -24 -39 13 -18 15 -18 40 -1 16 10 27 13 27
6 0 -6 17 -11 40 -11 28 0 40 -4 40 -15 0 -11 -16 -15 -67 -17 -53 -2 -68 -6
-68 -18 0 -13 25 -15 158 -18 151 -2 157 -2 157 17 0 18 -8 20 -67 23 -71 3
-93 21 -33 26 19 2 38 8 41 14 4 6 18 4 37 -6 29 -15 32 -15 41 2 8 16 4 22
-27 38 l-37 18 33 4 c24 2 32 8 32 23 0 15 -7 19 -35 19 l-35 0 0 60 0 60 36
0 c28 0 35 3 32 18 -2 11 -14 18 -36 20 -17 2 -32 7 -32 13 0 5 -9 9 -20 9
-11 0 -20 -4 -20 -10 0 -6 -28 -10 -65 -10 -37 0 -65 4 -65 10 0 6 -9 10 -20
10 -11 0 -20 -4 -20 -10z m170 -60 c0 -6 -28 -10 -65 -10 -37 0 -65 4 -65 10
0 6 28 10 65 10 37 0 65 -4 65 -10z m-5 -50 c4 -6 -18 -10 -60 -10 -42 0 -64
4 -60 10 3 6 30 10 60 10 30 0 57 -4 60 -10z m0 -50 c4 -6 -19 -10 -62 -10
-48 0 -63 3 -53 10 20 13 107 13 115 0z m-81 -64 c-6 -15 -42 -28 -56 -20 -15
9 13 34 38 34 16 0 22 -4 18 -14z m94 -7 c2 -13 -3 -15 -22 -12 -36 7 -44 35
-9 31 16 -2 29 -10 31 -19z"/>
<path d="M10900 19425 c0 -51 -3 -65 -15 -65 -11 0 -15 12 -15 50 0 43 -3 50
-20 50 -18 0 -20 -7 -20 -70 l0 -70 35 0 35 0 0 -70 c0 -63 -2 -70 -20 -70
-18 0 -20 7 -20 55 0 48 -2 55 -20 55 -18 0 -20 -7 -20 -84 0 -63 3 -85 14
-89 8 -3 20 1 26 9 17 19 107 19 126 -1 8 -8 21 -12 30 -8 12 4 14 22 12 87
-3 73 -5 81 -23 81 -17 0 -20 -8 -23 -52 -3 -45 -6 -53 -23 -53 -18 0 -20 6
-17 68 l3 67 38 3 37 3 0 70 c0 62 -2 69 -20 69 -17 0 -20 -7 -20 -50 0 -43
-3 -50 -20 -50 -18 0 -20 7 -20 65 0 58 -2 65 -20 65 -18 0 -20 -7 -20 -65z"/>
<path d="M10670 19453 c0 -17 6 -23 21 -23 23 0 21 -15 -13 -92 -22 -49 -18
-84 7 -74 12 4 15 -7 15 -64 0 -63 2 -70 20 -70 11 0 20 5 20 10 0 6 7 10 15
10 8 0 15 -4 15 -10 0 -5 7 -10 15 -10 12 0 15 19 15 110 l0 110 -30 0 c-32 0
-36 11 -24 58 5 16 14 22 35 22 24 0 29 4 29 25 0 26 -1 26 -70 23 -65 -3 -70
-5 -70 -25z m98 -201 c2 -51 0 -62 -13 -62 -12 0 -15 13 -15 66 0 48 3 65 13
62 7 -3 13 -28 15 -66z"/>
<path d="M12205 19688 c-3 -7 -6 -44 -7 -83 -3 -70 -3 -70 -31 -68 -37 3 -30
-21 7 -25 47 -6 56 12 56 104 0 51 -4 84 -10 84 -6 0 -13 -6 -15 -12z"/>
<path d="M12270 19627 c0 -92 15 -117 70 -117 42 0 67 18 76 54 9 37 0 129
-13 134 -10 3 -13 -15 -13 -66 0 -56 -4 -72 -20 -87 -17 -15 -24 -16 -45 -7
-14 6 -26 18 -26 27 -1 8 -3 20 -4 25 -1 6 -3 33 -4 60 -2 80 -21 59 -21 -23z"/>
<path d="M12493 19690 c-30 -12 -43 -41 -43 -94 0 -55 32 -86 90 -86 33 0 70
23 70 43 0 13 -27 7 -40 -8 -17 -20 -53 -19 -72 3 -26 29 -30 59 -13 92 13 24
22 30 49 30 18 0 39 -7 46 -15 10 -12 16 -13 24 -5 8 8 5 17 -13 31 -25 20
-62 24 -98 9z"/>
<path d="M12521 18931 c-12 -17 -27 -31 -33 -31 -6 0 -20 -7 -30 -17 -16 -14
-18 -15 -18 0 0 9 4 18 9 21 14 9 20 46 7 46 -10 0 -56 -79 -56 -95 0 -3 10
-5 21 -5 20 0 21 -1 5 -25 -26 -39 -21 -48 22 -40 20 4 39 11 40 16 9 25 22 4
22 -35 0 -43 12 -67 25 -47 3 6 24 8 45 5 l40 -6 0 46 c0 24 5 48 10 51 15 9
12 25 -4 25 -26 0 -37 25 -20 49 20 28 12 51 -16 44 -13 -4 -26 1 -34 12 -12
16 -14 15 -35 -14z m59 -36 c-10 -12 -16 -13 -26 -4 -20 16 -18 19 12 19 22 0
25 -2 14 -15z m-50 -30 c-5 -10 -67 -55 -75 -55 -3 0 3 15 12 34 13 28 21 34
42 33 14 -2 24 -7 21 -12z m54 -31 c28 -11 17 -24 -19 -24 -34 0 -47 13 -22
23 18 8 23 8 41 1z m16 -64 c0 -16 -7 -20 -35 -20 -28 0 -35 4 -35 20 0 16 7
20 35 20 28 0 35 -4 35 -20z"/>
<path d="M12684 18913 c-10 -26 -20 -51 -22 -55 -2 -5 5 -8 17 -8 19 0 20 -1
3 -29 -9 -16 -14 -32 -11 -35 9 -9 62 9 67 24 3 9 -1 11 -12 7 -10 -4 -16 -4
-14 0 38 79 48 82 40 16 -6 -56 -5 -55 -45 -69 -43 -15 -50 -38 -8 -29 20 4
31 3 31 -4 0 -22 18 -10 29 19 14 40 21 38 14 -5 -4 -23 -2 -35 6 -35 6 0 11
11 11 24 0 14 5 28 10 31 6 4 10 -5 10 -19 0 -35 18 -33 23 2 l4 27 2 -26 c0
-16 8 -28 19 -31 34 -9 42 2 42 63 l0 59 -60 0 c-33 0 -60 4 -60 10 0 6 27 10
60 10 l60 0 0 35 c0 32 -2 35 -30 35 -18 0 -33 6 -36 15 -4 8 -10 15 -15 15
-5 0 -9 -7 -9 -15 0 -9 -9 -15 -22 -15 -13 0 -36 -14 -52 -30 -35 -36 -43 -32
-26 10 9 21 10 34 3 41 -7 7 -16 -6 -29 -38z m186 -18 c0 -11 -12 -15 -45 -15
-33 0 -45 4 -45 15 0 11 12 15 45 15 33 0 45 -4 45 -15z m-60 -91 c0 -8 -5
-12 -10 -9 -6 4 -8 11 -5 16 9 14 15 11 15 -7z m27 -6 c-3 -8 -6 -5 -6 6 -1
11 2 17 5 13 3 -3 4 -12 1 -19z m43 7 c0 -8 -4 -15 -10 -15 -5 0 -10 7 -10 15
0 8 5 15 10 15 6 0 10 -7 10 -15z m0 -49 c0 -8 -4 -18 -10 -21 -5 -3 -10 3
-10 14 0 12 5 21 10 21 6 0 10 -6 10 -14z"/>
<path d="M12150 18830 c0 -73 4 -120 10 -120 10 0 14 14 11 37 -1 7 5 10 13 7
9 -3 20 4 28 19 11 21 16 23 28 14 8 -7 15 -18 15 -24 0 -22 20 -19 30 5 11
26 21 28 29 6 3 -8 10 -12 16 -9 5 3 10 -1 10 -9 0 -9 -7 -16 -16 -16 -16 0
-15 -21 2 -27 29 -9 37 17 37 123 l1 109 -107 3 -107 3 0 -121z m190 23 c-1
-61 -2 -66 -15 -49 -9 12 -12 30 -8 50 3 17 6 35 7 40 0 5 -5 11 -11 13 -8 3
-13 -4 -13 -16 0 -11 -4 -23 -10 -26 -5 -3 -10 -1 -10 4 0 6 -7 11 -15 11 -8
0 -15 7 -15 16 0 23 -24 11 -28 -14 -3 -20 -5 -21 -25 -7 -11 8 -22 21 -23 30
-2 12 12 15 82 15 l84 0 0 -67z m-60 -39 c0 -7 -4 -15 -9 -19 -13 -7 -31 27
-31 57 l1 23 19 -24 c11 -13 20 -29 20 -37z m-82 29 c10 -19 -1 -63 -16 -63
-5 0 -8 18 -8 40 0 43 9 51 24 23z"/>
<path d="M12957 18943 c-28 -4 -34 -28 -7 -28 7 0 15 -6 18 -12 2 -8 -5 -13
-17 -13 -12 0 -21 -6 -21 -15 0 -8 7 -15 15 -15 20 0 19 -6 -5 -46 -13 -21
-17 -35 -10 -39 5 -3 13 1 16 9 12 31 24 16 24 -29 0 -25 5 -45 10 -45 6 0 10
26 11 58 0 31 3 51 6 45 2 -7 9 -13 14 -13 14 0 11 22 -8 42 -15 17 -15 18 0
18 10 0 17 7 17 15 0 8 -7 15 -15 15 -8 0 -15 6 -15 14 0 8 7 16 15 20 8 3 15
10 15 16 0 10 -11 11 -63 3z"/>
<path d="M13040 18910 l0 -40 55 0 55 0 0 40 0 40 -55 0 -55 0 0 -40z m88 -2
c3 -15 -4 -18 -32 -18 -34 0 -47 15 -29 34 13 13 58 1 61 -16z"/>
<path d="M14010 18835 c0 -78 3 -95 15 -95 12 0 15 14 15 66 l0 66 44 -63 c65
-96 76 -92 76 26 0 73 -3 96 -12 93 -8 -3 -15 -30 -18 -68 l-5 -63 -45 67
c-25 36 -51 66 -57 66 -10 0 -13 -25 -13 -95z"/>
<path d="M14375 18903 c-4 -13 -14 -23 -21 -23 -18 0 -18 -17 0 -27 9 -5 16
-28 18 -58 3 -43 6 -50 26 -53 25 -4 31 22 7 32 -9 3 -15 19 -15 41 0 24 4 35
15 35 8 0 15 7 15 15 0 8 -6 15 -14 15 -8 0 -17 10 -19 23 l-4 22 -8 -22z"/>
<path d="M14473 18913 c-7 -3 -13 -11 -13 -18 0 -7 -6 -15 -12 -18 -10 -4 -10
-7 0 -18 6 -7 12 -28 12 -47 0 -18 5 -42 10 -53 13 -22 50 -26 50 -4 0 8 -6
14 -12 13 -9 -2 -14 12 -16 40 -2 33 0 42 12 42 9 0 16 7 16 15 0 8 -6 15 -14
15 -8 0 -16 8 -18 18 -2 11 -9 17 -15 15z"/>
<path d="M14217 18867 c-10 -6 -20 -28 -23 -48 -8 -50 22 -81 73 -77 20 2 38
9 41 16 3 9 -3 11 -21 7 -26 -7 -67 9 -67 25 0 6 23 10 50 10 46 0 50 2 50 23
0 47 -63 74 -103 44z m61 -19 c20 -20 14 -28 -23 -28 -38 0 -46 13 -17 29 22
13 26 13 40 -1z"/>
<path d="M14561 18813 c31 -69 32 -93 3 -93 -16 0 -15 -21 2 -27 21 -7 45 25
79 105 31 74 32 82 16 82 -13 0 -22 -13 -31 -45 -7 -25 -16 -48 -20 -50 -5 -3
-16 18 -26 45 -12 34 -23 50 -36 50 -15 0 -14 -8 13 -67z"/>
<path d="M13030 18835 c0 -9 9 -15 25 -15 30 0 34 -17 5 -22 -29 -4 -30 -22
-2 -26 33 -5 27 -22 -8 -22 -20 0 -30 -5 -30 -15 0 -12 15 -15 76 -15 56 0 75
3 72 13 -3 6 -17 13 -31 15 -31 4 -37 22 -7 22 11 0 20 7 20 15 0 8 -9 15 -20
15 -11 0 -20 5 -20 10 0 6 11 10 25 10 16 0 25 6 25 15 0 12 -14 15 -65 15
-51 0 -65 -3 -65 -15z"/>
<path d="M12465 18762 c-40 -9 -66 -22 -61 -31 6 -10 74 5 89 19 12 11 -4 17
-28 12z"/>
<path d="M12550 17515 l0 -95 60 0 c47 0 60 3 60 15 0 11 -12 15 -45 15 l-45
0 0 80 c0 64 -3 80 -15 80 -12 0 -15 -17 -15 -95z"/>
<path d="M12686 17528 c20 -46 38 -89 41 -95 12 -30 32 -7 70 82 35 81 39 95
24 95 -12 0 -26 -20 -43 -62 -14 -35 -29 -63 -34 -63 -4 0 -19 28 -33 62 -18
43 -32 63 -43 63 -15 0 -12 -12 18 -82z"/>
<path d="M12872 17598 c-17 -17 -15 -53 3 -68 8 -7 30 -20 48 -29 17 -9 32
-23 32 -31 0 -19 -46 -25 -74 -11 -14 8 -22 8 -26 0 -11 -17 27 -38 67 -39 29
0 41 6 54 25 22 34 10 60 -41 84 -64 30 -54 71 12 55 19 -5 24 -3 21 7 -6 18
-79 24 -96 7z"/>
<path d="M12233 17210 c-48 -11 -83 -38 -98 -73 -10 -24 -14 -157 -17 -557
l-5 -525 -116 -3 -116 -3 -3 200 c-3 219 -5 226 -72 275 -27 21 -34 21 -946
21 -912 0 -919 0 -946 -21 -67 -49 -69 -57 -72 -270 l-3 -194 -102 0 c-172 -1
-465 -32 -656 -70 -474 -94 -890 -277 -1247 -550 -96 -73 -307 -266 -380 -347
-187 -209 -359 -458 -507 -733 -88 -164 -229 -492 -295 -685 -11 -33 -24 -68
-28 -78 -5 -15 -3 -18 16 -15 19 2 29 21 61 113 109 308 274 657 418 885 326
516 706 868 1202 1113 408 202 843 307 1337 324 l182 6 0 -189 c0 -227 10
-261 82 -294 42 -19 73 -20 935 -20 987 0 948 -3 996 64 21 29 22 42 25 239
l3 207 119 0 119 0 3 -534 c3 -523 3 -535 24 -563 11 -15 36 -36 55 -45 31
-17 89 -18 777 -18 l742 0 0 -337 c0 -372 2 -382 63 -427 28 -21 29 -21 1508
-24 984 -1 1479 1 1479 8 0 6 -498 11 -1479 12 l-1479 3 -27 25 c-15 14 -31
35 -36 47 -6 16 -14 582 -10 681 1 9 163 12 776 12 510 0 775 3 775 10 0 7
-266 10 -777 10 l-778 0 3 337 c4 361 5 370 55 407 28 21 37 21 673 24 427 2
644 6 644 13 0 6 -213 9 -642 7 -626 -3 -644 -4 -678 -23 -68 -40 -70 -50 -70
-427 l0 -338 -746 0 c-825 0 -779 -4 -820 64 -18 30 -19 61 -18 701 1 729 -1
706 57 749 28 21 38 21 628 24 381 1 599 6 599 12 0 13 -1130 13 -1184 0 -22
-5 -52 -18 -67 -29 -16 -12 -31 -21 -34 -21 -3 0 -5 162 -3 359 3 345 4 361
24 388 46 63 42 63 547 63 298 0 457 3 457 10 0 12 -877 12 -927 0z m-457
-716 c64 -30 64 -31 64 -459 0 -424 -1 -429 -60 -460 -26 -13 -138 -15 -935
-13 l-905 3 -27 28 -28 27 -3 398 c-3 366 -2 400 15 431 10 19 31 40 48 47 24
11 207 13 913 14 798 0 887 -2 918 -16z"/>
<path d="M10308 16203 c-2 -30 -7 -38 -23 -38 -13 0 -21 -8 -23 -22 -3 -19 1
-23 22 -23 23 0 26 -4 26 -35 0 -30 -5 -38 -28 -48 -35 -15 -32 -47 4 -47 23
0 25 -3 22 -37 -2 -31 -7 -39 -26 -41 -16 -3 -22 -8 -18 -19 3 -8 6 -19 6 -24
0 -9 54 -4 72 7 4 3 8 36 8 74 0 51 4 69 15 74 8 3 15 15 15 26 0 11 -7 20
-15 20 -9 0 -15 9 -15 25 0 16 6 25 15 25 8 0 15 9 15 20 0 11 -7 23 -15 26
-9 4 -15 19 -15 40 0 27 -4 34 -19 34 -16 0 -20 -8 -23 -37z"/>
<path d="M10475 16230 c-3 -5 -3 -11 2 -11 4 -1 -10 -5 -32 -8 -27 -4 -41 -12
-43 -23 -2 -11 3 -18 12 -18 9 0 16 -6 16 -14 0 -8 3 -21 6 -30 5 -12 0 -16
-20 -16 -19 0 -26 -5 -26 -20 0 -16 7 -20 36 -20 45 0 42 -24 -4 -28 -24 -2
-32 -8 -32 -23 0 -11 7 -19 16 -19 12 0 15 -6 10 -23 -4 -19 0 -26 27 -39 l32
-16 -42 -11 c-26 -7 -43 -18 -43 -27 0 -25 24 -26 83 -4 56 21 56 21 94 1 37
-19 40 -19 50 -2 10 15 6 21 -22 34 -34 16 -34 17 -21 49 9 20 23 34 35 36 13
2 21 11 21 23 0 17 -7 19 -65 19 -51 0 -65 3 -65 15 0 12 13 15 60 15 53 0 60
2 60 20 0 13 -7 20 -18 20 -10 0 -21 3 -25 6 -9 10 15 54 30 54 8 0 13 8 11
18 -2 12 -15 18 -46 20 -26 2 -45 9 -49 18 -6 16 -39 19 -48 4z m65 -65 c0 -2
-5 -16 -12 -30 -14 -32 -36 -32 -48 1 -14 35 -14 34 25 34 19 0 35 -2 35 -5z
m0 -171 c0 -21 -22 -42 -40 -37 -44 12 -36 43 11 43 16 0 29 -3 29 -6z"/>
<path d="M10777 16229 c-16 -10 -15 -13 13 -46 25 -28 30 -41 25 -62 -13 -54
-52 -117 -104 -169 -48 -48 -52 -56 -38 -69 13 -14 18 -13 47 8 41 31 97 107
113 155 l13 37 30 -58 c32 -63 108 -155 129 -155 7 0 16 7 19 16 4 11 -9 33
-42 68 -29 31 -66 89 -95 146 -53 110 -83 144 -110 129z"/>
<path d="M11107 16106 c-3 -70 -12 -140 -22 -166 -17 -48 -14 -70 9 -70 15 0
45 79 47 124 1 16 2 17 6 4 3 -12 17 -18 45 -20 l42 -3 -35 -36 c-35 -38 -40
-69 -11 -69 9 0 55 5 101 10 71 8 88 7 102 -5 14 -14 18 -14 29 0 14 16 10 23
-39 78 l-25 27 37 0 c30 0 37 4 37 20 0 19 -7 20 -140 20 l-140 0 0 45 0 44
133 3 132 3 0 55 0 55 -151 1 -151 2 -6 -122z m261 62 c3 -16 -7 -18 -107 -18
-86 0 -111 3 -111 13 0 23 9 25 113 24 88 -2 102 -4 105 -19z m-26 -200 c-8
-8 -9 -15 -1 -25 13 -15 6 -18 -58 -27 -24 -4 -43 -4 -43 0 0 3 9 19 21 35 16
23 28 29 57 29 28 0 33 -3 24 -12z"/>
<path d="M11180 16070 c0 -19 6 -20 116 -20 105 0 115 2 112 18 -3 15 -18 17
-116 20 -107 3 -112 2 -112 -18z"/>
<path d="M12900 16835 c0 -8 7 -15 15 -15 8 0 15 7 15 15 0 8 -7 15 -15 15 -8
0 -15 -7 -15 -15z"/>
<path d="M12550 16745 c0 -78 3 -95 15 -95 12 0 15 14 15 67 l0 68 48 -68 c64
-91 76 -86 73 28 -1 49 -4 92 -7 94 -11 11 -17 -13 -17 -69 0 -33 -3 -60 -6
-60 -3 0 -26 30 -50 65 -61 91 -71 87 -71 -30z"/>
<path d="M12745 16767 c-39 -56 11 -129 73 -106 17 6 22 5 22 -6 0 -19 -41
-36 -69 -28 -24 6 -29 -12 -5 -21 65 -25 104 17 104 114 l0 66 -55 2 c-46 1
-57 -2 -70 -21z m89 -29 c8 -22 6 -32 -9 -48 -24 -26 -31 -25 -51 5 -14 21
-15 31 -5 51 15 34 52 29 65 -8z"/>
<path d="M12902 16723 c2 -42 8 -68 16 -71 9 -3 12 15 12 67 0 57 -3 71 -15
71 -13 0 -15 -12 -13 -67z"/>
<path d="M12970 16718 c0 -51 3 -69 13 -66 6 3 13 20 15 39 5 67 11 81 35 77
19 -3 23 -11 27 -57 7 -78 30 -80 30 -3 0 71 -10 82 -73 80 l-47 -1 0 -69z"/>
<path d="M13144 16758 l24 -33 -24 -30 c-27 -34 -30 -45 -10 -45 7 0 21 11 30
25 9 14 20 25 25 25 4 0 14 -11 21 -25 7 -14 22 -25 32 -25 16 0 16 4 -8 40
l-26 39 22 28 c19 24 20 28 6 31 -9 2 -25 -7 -35 -19 l-18 -23 -12 22 c-6 12
-21 22 -32 22 -19 0 -19 -1 5 -32z"/>
<path d="M14150 15976 l0 -96 40 0 c79 0 119 43 107 117 -9 51 -27 66 -91 71
l-56 4 0 -96z m110 45 c15 -29 12 -77 -6 -95 -8 -9 -29 -16 -45 -16 l-29 0 0
65 0 65 35 0 c24 0 37 -6 45 -19z"/>
<path d="M14490 15975 c0 -78 3 -95 15 -95 8 0 15 5 15 10 0 6 8 5 20 -2 17
-11 25 -10 48 2 21 13 28 24 30 57 4 52 -18 76 -65 71 -30 -4 -33 -2 -33 24 0
18 -5 28 -15 28 -12 0 -15 -17 -15 -95z m101 -1 c7 -20 6 -32 -6 -50 -8 -13
-20 -24 -25 -24 -16 0 -40 31 -40 54 0 48 54 64 71 20z"/>
<path d="M14650 15975 c0 -78 3 -95 15 -95 8 0 15 5 15 12 0 9 3 9 12 0 34
-34 88 2 88 59 0 52 -19 72 -63 67 -35 -4 -37 -2 -37 24 0 18 -5 28 -15 28
-12 0 -15 -17 -15 -95z m101 -1 c7 -20 6 -32 -6 -50 -18 -27 -19 -28 -46 -14
-22 12 -26 59 -7 78 20 20 48 14 59 -14z"/>
<path d="M14330 15970 c0 -57 24 -90 64 -90 40 0 56 25 56 86 0 30 -4 54 -10
54 -5 0 -10 -15 -10 -32 0 -61 -10 -79 -39 -76 -24 3 -26 7 -29 56 -2 37 -7
52 -18 52 -10 0 -14 -13 -14 -50z"/>
<path d="M14827 16002 c-40 -44 -6 -122 52 -122 58 0 89 79 50 127 -17 20 -83
16 -102 -5z m81 -14 c7 -7 12 -22 12 -34 0 -51 -72 -61 -78 -11 -6 47 36 75
66 45z"/>
<path d="M12853 15275 c-34 -36 -33 -48 2 -39 13 3 26 1 29 -5 4 -6 -10 -15
-34 -21 -22 -6 -40 -15 -40 -20 0 -13 37 -11 79 4 28 10 44 10 88 -3 37 -10
57 -11 64 -4 7 7 -4 14 -36 22 l-47 12 26 20 c43 34 34 49 -29 49 -30 0 -55 5
-55 10 0 17 -14 10 -47 -25z m107 -16 c0 -12 -35 -20 -54 -13 -9 3 -14 9 -11
13 6 10 65 10 65 0z"/>
<path d="M13140 15301 c0 -5 -16 -30 -35 -55 -34 -45 -50 -85 -23 -58 22 22
28 12 28 -53 0 -37 4 -65 10 -65 10 0 14 49 10 117 -1 17 8 49 19 71 19 37 19
52 -1 52 -4 0 -8 -4 -8 -9z"/>
<path d="M13190 15257 c0 -47 -3 -57 -21 -62 -23 -8 -20 -31 4 -27 12 2 17 -8
19 -45 l3 -48 45 -3 c33 -3 47 1 57 14 18 24 16 54 -2 54 -8 0 -15 -9 -15 -20
0 -25 -48 -40 -61 -19 -14 21 -4 91 15 101 37 21 69 55 62 67 -5 8 -16 4 -38
-14 -16 -14 -33 -25 -36 -25 -4 0 -7 16 -7 37 0 20 -6 38 -12 40 -9 3 -13 -11
-13 -50z"/>
<path d="M12557 15208 c-2 -51 -6 -102 -8 -112 -2 -10 2 -21 8 -23 8 -3 15 10
19 36 5 31 11 41 25 41 14 0 19 -7 19 -30 0 -20 -5 -30 -15 -30 -8 0 -15 -4
-15 -10 0 -5 11 -10 25 -10 l25 0 0 115 0 115 -39 0 -40 0 -4 -92z m63 52 c0
-13 -7 -20 -20 -20 -13 0 -20 7 -20 20 0 13 7 20 20 20 13 0 20 -7 20 -20z
m-2 -63 c2 -12 -3 -17 -17 -17 -12 0 -21 6 -21 13 0 31 32 34 38 4z"/>
<path d="M12660 15185 c0 -113 0 -115 23 -115 13 0 29 6 35 12 10 10 17 10 33
0 28 -18 37 -7 15 17 -14 15 -15 24 -7 40 6 11 11 29 11 40 0 16 -8 20 -42 23
-42 3 -43 4 -43 38 0 36 18 49 50 36 18 -6 8 -36 -11 -36 -16 0 -19 -16 -4
-25 21 -13 50 15 50 50 l0 35 -55 0 -55 0 0 -115z m79 -26 c-9 -17 -13 -19
-20 -8 -14 22 -11 29 11 29 18 0 19 -3 9 -21z m-29 -45 c0 -7 -7 -14 -15 -18
-12 -4 -15 3 -15 37 1 41 1 42 15 17 8 -14 14 -30 15 -36z"/>
<path d="M14720 15276 c0 -9 7 -16 16 -16 17 0 14 22 -4 28 -7 2 -12 -3 -12
-12z"/>
<path d="M15097 15283 c-4 -3 -7 -43 -7 -88 0 -62 4 -86 15 -95 9 -7 17 -11
18 -9 2 2 1 48 -1 102 -4 90 -8 107 -25 90z"/>
<path d="M14160 15266 c-23 -28 -7 -60 40 -84 52 -26 61 -55 18 -60 -15 -2
-36 2 -48 8 -16 9 -20 8 -20 -4 0 -35 85 -49 115 -20 30 30 15 67 -37 92 -70
33 -63 65 12 54 32 -5 34 -4 21 11 -17 21 -84 23 -101 3z"/>
<path d="M14633 15253 c-4 -10 -11 -22 -17 -26 -8 -6 -7 -10 2 -14 7 -3 12
-24 12 -53 0 -39 4 -52 19 -60 27 -14 41 -13 41 5 0 8 -7 15 -15 15 -11 0 -15
12 -15 45 0 33 4 45 15 45 8 0 15 5 15 10 0 6 -7 10 -15 10 -8 0 -15 9 -15 20
0 25 -18 26 -27 3z"/>
<path d="M14322 15218 c-46 -59 2 -142 72 -124 39 10 31 26 -13 26 -25 0 -41
5 -45 15 -4 12 4 15 44 15 46 0 50 2 50 24 0 14 -7 32 -16 40 -18 19 -77 21
-92 4z m76 -30 c3 -14 -3 -18 -26 -18 -35 0 -45 9 -30 27 15 19 52 12 56 -9z"/>
<path d="M14460 15158 c0 -54 3 -68 15 -68 11 0 15 11 15 41 0 46 14 79 35 79
21 0 35 -33 35 -79 0 -23 5 -41 10 -41 15 0 12 115 -2 128 -7 6 -34 10 -60 10
l-48 -1 0 -69z"/>
<path d="M14720 15159 c0 -52 3 -70 13 -67 7 3 13 29 15 71 2 55 0 67 -13 67
-12 0 -15 -14 -15 -71z"/>
<path d="M14782 15162 c4 -82 25 -98 30 -21 5 86 59 96 64 12 1 -21 3 -44 3
-50 1 -7 6 -13 11 -13 15 0 12 116 -3 128 -7 6 -35 11 -61 10 l-47 -1 3 -65z"/>
<path d="M14946 15208 c-44 -62 18 -139 88 -112 28 11 17 23 -20 22 -21 -1
-39 4 -45 13 -7 11 1 15 41 17 45 3 50 6 50 26 0 53 -84 78 -114 34z m82 -20
c3 -15 -4 -18 -32 -18 -38 0 -44 8 -24 28 17 17 52 11 56 -10z"/>
<path d="M12906 15175 c-3 -10 -19 -15 -46 -15 -51 0 -53 -18 -2 -22 l37 -3
-35 -22 c-19 -13 -39 -25 -45 -27 -5 -2 -7 -7 -3 -11 13 -13 60 5 90 36 21 21
39 29 63 29 31 0 34 -2 26 -22 -5 -15 -18 -24 -35 -26 -35 -4 -23 -22 14 -22
32 0 50 23 50 64 0 26 -7 29 -72 29 -10 0 -18 6 -18 13 0 19 -16 18 -24 -1z"/>
<path d="M15895 14479 c-56 -43 -70 -65 -36 -56 11 3 21 1 21 -4 0 -5 14 -9
30 -9 23 0 30 -4 30 -20 0 -16 -7 -20 -35 -20 -19 0 -35 -4 -35 -10 0 -5 16
-10 35 -10 28 0 35 -4 35 -20 0 -17 -7 -20 -45 -20 -33 0 -45 -4 -45 -15 0
-12 19 -15 110 -15 91 0 110 3 110 15 0 11 -12 15 -50 15 -43 0 -50 3 -50 20
0 16 7 20 35 20 19 0 35 5 35 10 0 6 -16 10 -35 10 -28 0 -35 4 -35 20 0 16 7
20 30 20 17 0 30 5 30 11 0 6 8 8 19 4 38 -12 30 14 -12 38 -24 14 -49 33 -57
41 -18 23 -29 19 -85 -25z m97 -14 l30 -25 -64 0 -63 1 28 24 c15 14 31 25 34
25 3 0 18 -11 35 -25z"/>
<path d="M16200 14510 c0 -5 -20 -10 -45 -10 -41 0 -45 -2 -45 -25 0 -25 15
-35 22 -14 6 17 169 18 175 2 9 -22 23 -14 23 12 0 23 -3 25 -50 25 -27 0 -50
5 -50 10 0 6 -7 10 -15 10 -8 0 -15 -4 -15 -10z"/>
<path d="M16400 14495 c0 -16 -6 -25 -15 -25 -8 0 -15 -4 -15 -10 0 -5 5 -10
10 -10 14 0 12 -17 -6 -56 -19 -39 -11 -58 11 -28 13 17 14 15 15 -33 0 -29 5
-53 10 -53 6 0 10 24 10 53 0 46 3 53 20 53 17 0 20 -7 20 -53 0 -29 5 -53 10
-53 6 0 10 11 10 25 0 18 5 25 20 25 15 0 20 -7 20 -25 0 -14 5 -25 10 -25 6
0 10 11 10 25 0 16 6 25 15 25 8 0 15 -7 15 -15 0 -8 -4 -15 -10 -15 -5 0 -10
-5 -10 -11 0 -6 10 -9 23 -7 20 3 22 9 25 86 l3 82 -28 0 -28 1 23 18 c37 32
27 41 -43 41 -37 0 -65 -4 -65 -10 0 -5 7 -10 16 -10 8 0 12 -5 8 -11 -3 -6 0
-15 7 -20 10 -6 8 -9 -8 -9 -18 0 -23 -6 -23 -25 0 -30 -15 -33 -30 -6 -13 26
-13 31 5 31 8 0 15 5 15 10 0 6 -7 10 -15 10 -9 0 -15 9 -15 25 0 14 -4 25
-10 25 -5 0 -10 -11 -10 -25z m145 -15 c-3 -5 -12 -10 -20 -10 -8 0 -17 5 -20
10 -4 6 5 10 20 10 15 0 24 -4 20 -10z m-32 -65 c1 -5 -6 -11 -15 -13 -11 -2
-18 3 -18 13 0 17 30 18 33 0z m57 0 c0 -8 -7 -15 -15 -15 -8 0 -15 7 -15 15
0 8 7 15 15 15 8 0 15 -7 15 -15z m-50 -44 c0 -11 -26 -22 -34 -14 -12 12 -5
23 14 23 11 0 20 -4 20 -9z m55 -1 c3 -5 -3 -10 -14 -10 -12 0 -21 5 -21 10 0
6 6 10 14 10 8 0 18 -4 21 -10z"/>
<path d="M14570 14485 c0 -8 7 -15 15 -15 8 0 15 7 15 15 0 8 -7 15 -15 15 -8
0 -15 -7 -15 -15z"/>
<path d="M15227 14493 c-4 -3 -7 -43 -7 -88 0 -62 4 -86 15 -95 9 -7 17 -11
18 -9 2 2 1 48 -1 102 -4 90 -8 107 -25 90z"/>
<path d="M15610 14411 c0 -67 4 -92 15 -101 9 -7 17 -11 18 -9 2 2 1 48 -1
102 -3 75 -7 97 -18 97 -11 0 -14 -19 -14 -89z"/>
<path d="M14160 14476 c-23 -29 -7 -60 43 -86 61 -32 59 -55 -3 -56 -64 -1
-68 -3 -40 -19 57 -33 126 -6 118 47 -2 16 -17 30 -50 46 -68 32 -60 70 12 55
18 -3 30 -1 30 5 0 24 -90 31 -110 8z"/>
<path d="M15072 14483 c-7 -3 -19 -18 -27 -33 -37 -71 0 -149 71 -150 37 0 81
31 70 49 -6 9 -13 8 -30 -6 -11 -11 -27 -18 -33 -17 -7 1 -17 2 -22 3 -22 3
-41 35 -41 67 0 33 28 74 50 74 18 0 60 -23 60 -34 0 -6 5 -5 12 2 20 20 -19
52 -61 51 -20 0 -42 -3 -49 -6z"/>
<path d="M15780 14461 c0 -28 -1 -29 -39 -24 -36 5 -41 3 -56 -26 -32 -64 22
-136 77 -102 11 7 18 7 18 1 0 -5 7 -10 15 -10 12 0 15 17 15 95 0 78 -3 95
-15 95 -10 0 -15 -10 -15 -29z m-10 -60 c14 -27 13 -47 -6 -65 -22 -23 -39
-20 -54 9 -10 19 -11 30 -2 50 14 30 47 33 62 6z"/>
<path d="M16144 14451 c-10 -10 -2 -20 19 -24 19 -3 18 -5 -10 -12 -18 -4 -33
-11 -33 -15 0 -16 15 -18 46 -5 19 8 34 10 34 6 0 -5 -21 -18 -47 -29 -38 -15
-44 -21 -31 -27 11 -4 34 1 58 13 22 11 40 15 40 10 0 -5 -25 -20 -55 -34 -30
-14 -55 -30 -55 -35 0 -15 24 -10 73 15 37 18 47 20 47 9 0 -8 -9 -17 -20 -20
-28 -7 -25 -23 4 -23 31 0 38 11 38 58 l0 36 18 -24 c10 -14 25 -34 33 -44 8
-11 19 -16 26 -12 8 5 4 16 -14 38 -29 35 -32 53 -8 67 27 15 7 26 -22 13 -35
-16 -55 -15 -55 3 0 10 11 15 35 15 19 0 35 5 35 10 0 6 -6 10 -12 11 -83 3
-140 3 -144 0z"/>
<path d="M14310 14349 c0 -72 3 -89 15 -89 10 0 15 10 15 32 0 25 3 29 12 20
33 -33 88 2 88 57 0 58 -14 71 -75 70 l-55 -2 0 -88z m99 45 c10 -22 9 -31 -4
-50 -26 -40 -65 -24 -65 26 0 52 48 68 69 24z"/>
<path d="M14472 14372 c4 -83 26 -97 30 -20 2 44 7 55 26 63 33 15 27 22 -18
22 l-41 0 3 -65z"/>
<path d="M14570 14370 c0 -56 3 -70 15 -70 12 0 15 14 15 70 0 56 -3 70 -15
70 -12 0 -15 -14 -15 -70z"/>
<path d="M14640 14368 c0 -51 3 -69 12 -66 8 3 13 24 14 50 1 53 9 68 34 68
22 0 30 -19 30 -76 0 -32 4 -44 15 -44 11 0 15 12 15 51 0 75 -11 89 -70 88
l-50 -2 0 -69z"/>
<path d="M14806 14424 c-16 -16 -21 -60 -10 -89 9 -24 51 -37 75 -25 15 8 19
7 19 -4 0 -22 -35 -38 -65 -30 -27 7 -35 -10 -9 -20 30 -12 64 -6 84 14 16 16
20 33 20 94 l0 73 -49 2 c-33 0 -55 -5 -65 -15z m72 -16 c18 -18 15 -66 -5
-76 -38 -19 -70 19 -53 62 10 28 38 34 58 14z"/>
<path d="M15313 14432 c-6 -4 -16 -20 -22 -35 -27 -70 57 -129 109 -77 26 26
26 81 2 103 -19 18 -68 22 -89 9z m71 -31 c35 -39 -10 -94 -52 -65 -26 18 -28
41 -5 66 21 23 36 23 57 -1z"/>
<path d="M15452 14384 c5 -61 23 -84 63 -84 40 0 58 23 63 84 4 46 2 56 -11
56 -12 0 -17 -13 -19 -52 -3 -51 -4 -53 -33 -53 -29 0 -30 2 -33 53 -2 39 -7
52 -19 52 -13 0 -15 -10 -11 -56z"/>
<path d="M3071 13145 l-12 -35 -85 0 -84 0 0 -30 0 -30 60 0 c40 0 60 -4 60
-12 0 -7 -32 -43 -70 -81 -69 -68 -71 -70 -55 -93 19 -30 26 -30 63 1 17 14
33 25 36 25 3 0 6 -43 6 -95 l0 -95 30 0 30 0 0 100 0 100 45 0 45 0 0 -126 0
-125 33 3 32 3 0 123 0 122 48 0 48 0 -3 -67 -3 -68 -33 -3 c-29 -3 -33 -6
-28 -25 3 -12 6 -26 6 -31 0 -12 87 -1 105 14 12 10 15 37 15 126 l0 114 -74
0 -75 0 -3 33 c-3 28 -6 32 -33 32 -27 0 -30 -4 -33 -32 -3 -32 -5 -33 -48
-33 -24 0 -44 2 -44 5 0 3 11 23 25 45 l25 40 145 0 145 0 0 30 0 30 -131 0
c-121 0 -131 1 -124 18 20 48 19 52 -17 52 -30 0 -36 -4 -47 -35z"/>
<path d="M3720 13130 l0 -50 -135 0 -135 0 0 -30 0 -30 139 0 138 0 7 -67 c18
-176 81 -303 151 -303 30 0 54 29 70 84 l14 46 -29 15 -30 15 -11 -45 c-6 -25
-15 -45 -19 -45 -14 0 -59 115 -70 180 -6 36 -13 77 -16 93 l-6 27 86 0 86 0
0 30 c0 26 -4 30 -26 30 -14 0 -22 4 -19 10 6 10 -9 45 -32 72 -14 16 -17 16
-39 1 l-24 -15 21 -34 21 -34 -36 0 -36 0 0 50 0 50 -35 0 -35 0 0 -50z"/>
<path d="M4098 13158 c-2 -19 -10 -24 -41 -26 -35 -3 -38 -6 -35 -30 2 -22 9
-28 36 -30 17 -2 32 -5 32 -8 0 -14 -35 -72 -58 -97 l-26 -27 21 -21 c20 -20
22 -20 46 -4 27 18 77 106 77 137 0 13 8 18 30 18 28 0 30 -2 30 -38 0 -44
-14 -62 -48 -62 -20 0 -23 -4 -18 -22 3 -13 6 -26 6 -30 0 -16 69 -7 91 11 20
16 23 29 27 110 l4 91 -56 0 c-53 0 -56 1 -56 25 0 21 -5 25 -29 25 -23 0 -30
-5 -33 -22z"/>
<path d="M4658 13128 l-3 -53 -37 -3 c-35 -3 -38 -6 -38 -33 0 -27 3 -29 35
-29 19 0 35 -2 35 -4 0 -16 -36 -98 -56 -127 -21 -31 -23 -39 -13 -67 6 -18
14 -32 18 -32 4 0 19 24 33 53 l27 52 0 -117 1 -118 30 0 30 0 0 128 0 127 20
-25 20 -25 19 25 19 24 -39 47 c-21 26 -39 49 -39 52 0 3 14 7 32 9 26 2 32 8
35 31 3 25 1 27 -32 27 l-35 0 0 55 c0 54 0 55 -29 55 -29 0 -30 -2 -33 -52z"/>
<path d="M4830 13125 c-6 -30 -22 -75 -35 -100 l-24 -45 23 -27 24 -28 28 58
28 57 77 0 78 0 -6 -147 c-3 -82 -10 -156 -15 -165 -6 -13 -21 -18 -53 -18
-46 0 -53 -7 -35 -41 21 -38 127 -20 148 26 6 13 14 109 18 214 l7 190 -99 3
-99 3 3 31 c3 26 -1 32 -20 38 -13 3 -26 6 -30 6 -4 0 -12 -25 -18 -55z"/>
<path d="M5254 13163 c-21 -64 -50 -127 -79 -172 -27 -40 -33 -58 -28 -81 7
-36 16 -38 37 -8 15 21 16 12 16 -115 l0 -137 35 0 35 0 0 68 c0 66 1 67 18
44 l18 -23 27 38 c27 38 27 38 27 10 0 -25 3 -27 40 -27 l40 0 0 -55 c0 -54 0
-55 30 -55 30 0 30 1 30 55 l0 55 39 0 c36 0 40 3 43 28 l3 27 20 -32 c23 -39
30 -40 50 -9 16 23 15 27 -24 83 -37 55 -81 143 -81 164 0 5 23 9 50 9 49 0
50 1 50 30 l0 30 -75 0 -75 0 0 45 c0 43 -1 45 -30 45 -29 0 -30 -2 -30 -45
l0 -45 -71 0 c-76 0 -74 -2 -52 56 2 6 -8 16 -22 22 -33 15 -35 15 -41 -5z
m92 -133 c24 0 44 -5 44 -11 0 -19 -67 -153 -94 -188 l-26 -35 0 117 c0 71 5
127 13 144 l12 28 3 -28 c3 -25 7 -27 48 -27z m94 -130 l0 -80 -39 0 -40 0 24
43 c12 23 28 59 35 80 6 20 13 37 16 37 2 0 4 -36 4 -80z m111 -22 l27 -58
-39 0 -39 0 1 83 c0 68 2 78 11 57 6 -14 24 -51 39 -82z"/>
<path d="M6778 13133 l-3 -48 -97 -3 -98 -3 0 -139 0 -140 30 0 c20 0 30 5 30
15 0 12 14 15 70 15 l70 0 0 -95 0 -95 30 0 30 0 0 95 0 95 70 0 c56 0 70 -3
70 -15 0 -10 11 -15 35 -15 l36 0 -3 138 -3 137 -100 5 -100 5 -3 48 c-3 45
-5 47 -32 47 -27 0 -29 -2 -32 -47z m2 -173 l0 -60 -70 0 -70 0 0 60 0 60 70
0 70 0 0 -60z m200 0 l0 -60 -70 0 -70 0 0 60 0 60 70 0 70 0 0 -60z"/>
<path d="M7206 13167 c-18 -13 -15 -21 49 -115 5 -6 55 22 55 30 0 17 -61 98
-74 98 -7 0 -20 -6 -30 -13z"/>
<path d="M7767 13105 c-20 -41 -48 -91 -63 -110 -21 -28 -25 -41 -20 -70 8
-41 12 -42 37 -12 18 22 18 20 19 -120 l0 -143 30 0 c17 0 30 5 31 13 0 6 0
87 0 180 -1 165 -1 168 29 239 17 39 29 72 28 73 -7 5 -47 25 -51 25 -3 0 -21
-34 -40 -75z"/>
<path d="M8000 13120 c0 -58 -1 -60 -26 -60 -24 0 -26 3 -22 35 4 35 -5 45
-42 45 -12 0 -19 -10 -24 -37 -3 -21 -17 -62 -31 -92 -24 -50 -24 -56 -10 -77
9 -13 19 -24 24 -24 4 0 19 20 32 45 22 41 27 45 61 45 l38 0 0 -55 0 -55 -80
0 -80 0 0 -30 0 -30 80 0 80 0 0 -90 0 -90 30 0 29 0 3 88 3 87 73 3 72 3 0
29 0 30 -76 0 -75 0 3 53 3 52 63 3 c61 3 62 3 62 32 0 29 -1 29 -62 32 l-63
3 -3 58 c-3 56 -4 57 -32 57 -30 0 -30 0 -30 -60z"/>
<path d="M15150 13086 c0 -79 3 -96 15 -96 10 0 15 10 15 33 l1 32 29 -34 c16
-19 36 -36 45 -37 21 -3 19 3 -10 38 -31 36 -31 37 0 70 37 40 10 47 -30 8
l-34 -33 -3 53 c-2 32 -8 55 -15 58 -10 3 -13 -20 -13 -92z"/>
<path d="M2450 13120 c-18 -28 -57 -73 -87 -99 -51 -45 -54 -51 -43 -73 7 -12
14 -24 15 -26 2 -2 15 4 29 13 26 17 26 17 26 -9 0 -25 3 -26 50 -26 55 0 57
-4 34 -58 -17 -42 -64 -94 -111 -123 -32 -20 -33 -21 -15 -44 9 -14 22 -25 29
-25 22 0 112 80 137 122 13 24 29 62 36 86 l11 42 54 0 c30 0 56 -4 59 -9 11
-17 -13 -144 -29 -160 -11 -11 -33 -16 -75 -15 -64 1 -65 -1 -50 -40 9 -24 14
-26 70 -26 114 0 135 29 147 204 3 53 8 96 11 96 3 0 14 -7 24 -16 16 -16 19
-15 37 7 26 31 26 34 -2 52 -43 28 -104 96 -122 137 -19 43 -30 48 -61 26 -19
-14 -18 -15 4 -60 12 -26 41 -67 63 -91 l42 -45 -169 0 -168 0 45 48 c90 93
104 128 61 151 -18 9 -24 4 -52 -39z"/>
<path d="M6099 13165 c-3 -2 -81 -10 -175 -16 -93 -6 -171 -13 -172 -14 -2 -2
-1 -13 3 -24 6 -18 14 -21 73 -21 l66 0 -29 -30 c-16 -16 -34 -30 -39 -30 -25
-1 -37 -17 -31 -43 7 -26 9 -26 69 -21 58 5 60 5 41 -11 -24 -21 -115 -65
-132 -65 -15 0 -15 -5 -7 -38 6 -22 9 -22 96 -16 l89 7 -3 -64 -3 -64 -36 -3
c-35 -3 -37 -5 -30 -30 6 -24 13 -27 53 -30 67 -4 78 11 78 113 l0 83 56 4
c51 3 58 1 78 -24 21 -27 21 -27 45 -9 24 19 25 19 6 47 -34 55 -86 114 -99
114 -8 0 -19 -7 -26 -15 -10 -12 -10 -18 0 -30 7 -9 10 -18 7 -22 -6 -5 -149
-22 -154 -18 -2 1 27 23 65 48 37 26 85 62 106 81 l39 34 -29 15 c-27 14 -30
14 -67 -15 -26 -21 -53 -32 -85 -36 l-47 -4 34 35 c37 39 48 43 157 52 87 8
100 15 85 44 -8 15 -21 21 -45 21 -18 0 -35 -2 -37 -5z"/>
<path d="M14680 13080 c0 -53 4 -90 10 -90 6 0 11 9 11 20 2 32 4 38 11 45 10
10 43 -11 57 -38 7 -14 22 -28 32 -30 24 -6 24 -2 -1 38 -18 29 -18 34 -5 45
20 16 19 64 -1 84 -10 10 -33 16 -65 16 l-49 0 0 -90z m84 57 c27 -20 17 -51
-18 -55 -36 -4 -49 8 -40 42 7 29 30 34 58 13z"/>
<path d="M15540 13080 c0 -73 3 -90 15 -90 12 0 15 14 15 68 l1 67 33 -38 32
-39 32 36 c17 20 34 36 37 36 3 0 5 -31 5 -70 0 -40 4 -70 10 -70 6 0 10 38
10 95 0 110 -8 118 -59 55 l-32 -41 -32 40 c-18 22 -40 40 -49 40 -16 1 -18
-10 -18 -89z"/>
<path d="M15793 13150 c-73 -68 4 -202 93 -161 19 8 30 9 39 1 17 -14 32 7 17
22 -7 7 -7 19 -1 36 13 33 4 70 -23 100 -28 29 -95 31 -125 2z m106 -26 c28
-35 28 -74 1 -74 -14 0 -20 -6 -18 -17 2 -13 -5 -19 -22 -21 -57 -7 -88 62
-50 111 27 35 62 35 89 1z"/>
<path d="M15460 13145 c0 -9 -7 -18 -15 -21 -19 -8 -20 -24 -1 -24 11 0 16
-15 18 -52 3 -51 4 -53 33 -56 l30 -4 -22 22 c-31 28 -32 90 -3 90 11 0 20 5
20 10 0 6 -7 10 -16 10 -9 0 -18 9 -21 20 -6 23 -23 27 -23 5z"/>
<path d="M4307 13144 c-4 -4 -7 -54 -7 -111 l0 -103 105 0 106 0 -3 108 -3
107 -95 3 c-53 1 -99 0 -103 -4z m133 -104 l0 -50 -35 0 -35 0 0 50 0 50 35 0
35 0 0 -50z"/>
<path d="M7340 13125 c0 -32 27 -39 131 -33 l79 5 -2 -191 -3 -191 -31 -3
c-29 -3 -31 -5 -25 -30 6 -22 14 -28 42 -30 24 -2 44 4 60 17 24 19 24 19 27
250 l3 231 -140 0 -141 0 0 -25z"/>
<path d="M14872 13123 c-7 -3 -19 -17 -27 -33 -18 -34 -4 -84 27 -101 32 -17
78 -1 93 34 27 64 -30 126 -93 100z m69 -44 c16 -31 -3 -69 -36 -69 -17 0 -29
8 -36 24 -15 32 4 66 36 66 15 0 29 -9 36 -21z"/>
<path d="M15032 13118 c-43 -21 -43 -89 0 -121 22 -17 33 -19 55 -11 45 16 41
36 -6 28 -37 -6 -41 -4 -46 19 -4 14 -4 35 0 47 6 19 12 21 46 16 42 -7 52 6
20 24 -24 12 -39 12 -69 -2z"/>
<path d="M15305 13105 c-28 -27 -32 -61 -10 -92 16 -23 57 -37 86 -28 32 10
23 32 -11 27 -30 -4 -64 13 -55 28 2 4 25 6 50 4 44 -4 45 -3 45 26 0 31 -30
60 -63 60 -10 0 -29 -11 -42 -25z m72 -21 c5 -14 -30 -24 -47 -14 -7 4 -9 13
-5 19 8 15 47 10 52 -5z"/>
<path d="M7140 12865 l0 -215 30 0 30 0 0 215 0 215 -30 0 -30 0 0 -215z"/>
<path d="M7260 12892 c0 -76 2 -141 4 -143 2 -2 54 -3 115 -1 l111 3 0 140 0
139 -115 0 -115 0 0 -138z m170 53 c0 -24 -3 -25 -55 -25 -52 0 -55 1 -55 25
0 24 3 25 55 25 52 0 55 -1 55 -25z m0 -115 c0 -30 -1 -30 -55 -30 -54 0 -55
0 -55 30 0 30 1 30 55 30 54 0 55 0 55 -30z"/>
<path d="M4836 12911 c-47 -108 -48 -113 -37 -130 8 -12 18 -13 68 -1 32 7 64
15 71 17 7 3 12 -3 12 -14 0 -28 9 -33 37 -20 28 12 27 34 -4 115 -17 44 -23
48 -53 32 -16 -8 -18 -15 -10 -35 8 -20 6 -25 -11 -30 -11 -4 -23 -5 -25 -2
-3 3 6 33 20 68 15 34 26 63 26 65 0 1 -13 6 -28 12 -28 10 -28 9 -66 -77z"/>
<path d="M3460 12920 c0 -29 2 -30 45 -30 l45 0 0 -65 c0 -61 -1 -65 -25 -70
-82 -17 -77 -14 -70 -43 4 -15 8 -28 9 -30 3 -3 147 23 219 39 43 10 47 13 47
41 0 29 -2 30 -32 25 -18 -4 -43 -9 -55 -13 -22 -6 -23 -4 -23 55 l0 61 45 0
c43 0 45 1 45 30 l0 30 -125 0 -125 0 0 -30z"/>
<path d="M4240 12900 c0 -19 -7 -20 -110 -20 l-110 0 0 -35 0 -35 77 0 c66 0
75 -2 63 -14 -18 -16 -84 -52 -123 -66 -29 -10 -28 -14 1 -58 13 -20 82 18
149 81 l53 50 0 -77 0 -76 30 0 30 0 0 75 c0 41 1 75 3 75 2 0 24 -19 48 -43
25 -23 67 -55 93 -71 l49 -29 18 24 c10 13 19 26 19 29 0 3 -35 23 -77 45 -42
22 -76 44 -77 49 -1 5 33 9 74 10 l75 1 0 30 0 30 -112 3 c-105 2 -113 4 -113
22 0 16 -7 20 -30 20 -23 0 -30 -4 -30 -20z"/>
<path d="M6297 12903 c-4 -3 -7 -19 -7 -35 l0 -28 100 0 100 0 0 35 0 35 -93
0 c-52 0 -97 -3 -100 -7z"/>
<path d="M6064 12809 c-18 -20 -17 -21 51 -84 l70 -63 23 21 22 21 -31 32
c-17 18 -50 46 -74 63 l-42 30 -19 -20z"/>
<path d="M5814 12789 c-16 -17 -44 -39 -61 -51 -38 -23 -39 -28 -15 -57 l17
-22 53 39 c28 22 61 51 72 64 19 24 19 26 1 42 -25 22 -33 20 -67 -15z"/>
<path d="M14330 12764 c-82 -35 -90 -79 -90 -470 l0 -304 -1014 -2 c-1007 -3
-1015 -3 -1043 -24 -15 -11 -36 -36 -45 -55 -16 -32 -18 -200 -23 -2489 -3
-1350 -6 -2557 -5 -2682 l0 -228 -114 0 -114 0 -4 199 c-3 225 -7 237 -84 276
-38 20 -59 20 -939 20 -882 0 -901 0 -934 -20 -72 -43 -76 -54 -79 -271 l-3
-194 -42 0 c-22 0 -104 5 -181 11 -875 67 -1595 485 -2202 1279 -302 393 -618
992 -847 1600 -268 711 -508 1645 -663 2583 -33 199 -40 227 -56 227 -10 0
-18 -5 -18 -12 0 -41 131 -757 181 -985 282 -1302 623 -2244 1094 -3023 587
-970 1365 -1546 2270 -1680 98 -15 383 -40 458 -40 4 0 7 -87 7 -192 0 -181 2
-195 23 -233 14 -25 37 -48 62 -60 39 -20 60 -20 930 -20 981 0 943 -2 993 63
l27 35 3 209 3 208 115 0 114 0 -1 -1127 c0 -621 2 -1827 6 -2682 5 -1261 9
-1560 19 -1586 8 -18 29 -43 47 -56 l34 -24 1403 -3 c942 -1 1402 1 1402 8 0
7 -459 10 -1394 10 l-1393 0 -34 23 c-66 44 -64 25 -66 635 -2 337 1 552 7
552 5 0 13 -6 17 -12 28 -44 -3 -43 932 -48 l886 -5 6 -145 c6 -162 14 -189
68 -223 l36 -22 978 -3 c659 -2 977 1 977 8 0 7 -317 10 -967 10 -902 0 -970
1 -1003 18 -66 33 -70 52 -70 367 0 315 4 334 70 367 32 16 78 18 510 18 327
0 471 3 464 10 -7 7 -167 10 -485 8 -523 -3 -511 -2 -552 -67 -20 -32 -22 -52
-25 -184 l-4 -148 -871 3 c-812 3 -874 4 -904 21 -67 36 -63 -22 -63 1027 l0
951 37 -28 36 -28 883 -3 883 -2 3 -343 c3 -380 5 -388 71 -424 30 -17 92 -18
900 -21 585 -2 867 1 867 8 0 7 -281 10 -857 10 -797 0 -860 1 -893 18 -68 33
-70 46 -70 420 l0 332 585 0 c383 0 585 3 585 10 0 7 -202 10 -585 10 l-585 0
0 333 c0 373 2 386 70 419 32 17 83 18 618 18 393 0 582 3 582 10 0 7 -191 10
-592 8 -671 -3 -642 0 -679 -81 -17 -39 -19 -69 -19 -375 l0 -332 -879 2
c-875 3 -880 3 -908 24 -15 11 -34 32 -40 45 -10 19 -13 326 -13 1392 0 1503
-4 1409 60 1442 25 13 113 15 639 15 l610 0 3 -632 c3 -612 4 -634 23 -667 11
-19 33 -43 48 -55 l28 -21 1985 -3 c1334 -1 1984 1 1984 8 0 7 -646 10 -1965
10 -1790 0 -1968 1 -2005 16 -78 31 -75 7 -78 647 -2 516 1 606 21 554 3 -8
21 -21 40 -30 32 -15 107 -17 776 -17 408 0 742 -3 742 -7 1 -5 2 -69 3 -144
2 -149 12 -180 69 -223 l28 -21 1175 -3 c793 -2 1174 1 1174 8 0 7 -377 10
-1157 10 -1105 0 -1160 1 -1199 19 -66 30 -69 44 -69 371 0 250 2 289 17 316
36 66 19 64 717 64 426 0 631 3 631 10 0 7 -208 10 -644 8 -637 -3 -645 -3
-673 -24 -51 -39 -65 -75 -64 -172 1 -48 -2 -113 -5 -145 l-7 -58 -736 3
c-804 3 -770 1 -815 61 -21 28 -21 34 -21 721 0 644 1 694 18 719 42 65 9 62
683 65 l612 3 4 -148 c3 -164 13 -193 72 -229 29 -18 63 -19 614 -22 397 -2
582 1 582 8 0 7 -184 10 -572 10 -640 0 -622 -2 -660 70 -16 31 -18 62 -18
315 0 315 4 334 70 367 32 17 82 18 598 18 368 0 562 3 562 10 0 7 -194 10
-562 10 -531 0 -565 -2 -605 -19 -66 -31 -77 -61 -83 -231 l-5 -145 -612 -1
c-583 -1 -613 -2 -645 -21 -18 -10 -41 -34 -53 -53 -19 -34 -20 -52 -23 -672
l-3 -638 -604 0 c-403 0 -613 -4 -632 -11 -15 -6 -38 -20 -50 -31 l-23 -21 0
1447 c0 1597 -5 1487 63 1523 30 17 92 18 904 21 l871 3 4 -148 c3 -164 13
-193 72 -229 30 -18 68 -19 874 -22 571 -2 842 1 842 8 0 7 -269 10 -832 10
-773 0 -836 1 -868 18 -66 33 -70 51 -70 372 0 268 1 287 20 318 40 65 0 62
969 62 576 0 882 3 886 10 4 7 -292 10 -882 10 -851 0 -890 -1 -930 -19 -66
-31 -77 -61 -81 -228 -3 -100 -7 -143 -15 -143 -7 0 -399 -1 -872 -2 -810 -3
-862 -4 -897 -21 -20 -10 -39 -25 -42 -33 -23 -61 -26 35 -26 900 0 579 4 933
10 967 7 38 19 63 40 84 l30 30 1015 3 1015 2 0 -22 c0 -13 1 -165 2 -338 3
-270 5 -319 19 -345 24 -42 48 -61 94 -74 53 -15 1705 -16 1705 -1 0 7 -287
10 -842 10 -827 0 -842 0 -884 20 -72 35 -74 49 -74 425 l0 325 635 0 c417 0
635 3 635 10 0 7 -218 10 -635 10 l-635 0 0 328 c0 302 2 330 20 370 34 76
-20 72 965 72 577 0 875 3 875 10 0 7 -299 10 -877 9 -754 0 -883 -2 -913 -15z
m-2567 -5808 c18 -7 41 -23 52 -36 19 -21 20 -36 20 -431 l0 -409 -26 -25
c-14 -15 -43 -30 -65 -35 -55 -13 -1729 -13 -1775 0 -19 6 -46 22 -60 36 l-24
26 -3 402 c-3 401 -3 403 19 430 45 57 11 55 957 56 715 0 878 -2 905 -14z"/>
<path d="M10734 6643 c-48 -48 -51 -53 -35 -67 15 -14 19 -14 33 0 13 13 20
14 37 4 32 -16 18 -28 -50 -41 -45 -9 -59 -15 -55 -26 4 -8 6 -17 6 -19 0 -10
53 -2 114 16 61 19 69 20 111 6 25 -9 63 -19 84 -22 32 -5 41 -3 49 13 10 18
6 21 -54 32 -35 7 -64 16 -64 20 0 3 16 19 35 34 19 15 35 37 35 47 0 18 -7
20 -80 20 -61 0 -80 3 -80 14 0 33 -37 20 -86 -31z m146 -43 c-31 -24 -33 -24
-61 0 l-24 19 55 0 55 1 -25 -20z"/>
<path d="M10280 6546 c0 -73 -5 -147 -11 -165 -9 -24 -8 -35 2 -47 12 -14 14
-14 26 2 7 10 16 39 19 66 6 42 10 48 30 48 22 0 24 -4 24 -45 0 -38 -3 -45
-20 -45 -22 0 -25 -7 -11 -28 5 -8 21 -12 37 -10 l29 3 3 178 2 177 -65 0 -65
0 0 -134z m90 69 c0 -20 -5 -25 -25 -25 -20 0 -25 5 -25 25 0 20 5 25 25 25
20 0 25 -5 25 -25z m0 -95 c0 -25 -4 -30 -25 -30 -20 0 -25 5 -25 23 0 28 7
37 32 37 13 0 18 -8 18 -30z"/>
<path d="M10440 6500 l0 -181 41 4 c22 2 48 11 56 20 15 15 19 14 46 -5 24
-17 31 -18 38 -7 13 21 11 26 -16 47 -24 19 -24 21 -10 56 8 19 15 49 15 66
l0 30 -65 0 -65 0 0 55 0 55 45 0 c37 0 45 -3 45 -18 0 -23 -19 -42 -43 -42
-33 0 -12 -25 23 -28 44 -5 60 17 60 80 l0 48 -85 0 -85 0 0 -180z m130 -19
c0 -16 -12 -41 -19 -41 -4 0 -13 11 -19 25 -11 23 -10 25 13 25 14 0 25 -4 25
-9z m-50 -89 c0 -4 -9 -13 -20 -20 -19 -12 -20 -10 -20 45 l0 58 20 -38 c11
-20 20 -40 20 -45z"/>
<path d="M11107 6562 c-3 -67 -13 -139 -22 -166 -15 -43 -15 -50 -2 -63 13
-14 16 -13 26 5 6 12 18 45 25 74 8 29 15 47 15 41 1 -8 15 -13 36 -13 43 0
45 -14 5 -55 -20 -21 -27 -34 -20 -44 7 -12 26 -13 110 -5 87 8 103 7 110 -6
8 -13 11 -13 26 2 16 16 15 19 -20 62 l-37 46 35 0 c29 0 36 4 36 20 0 19 -7
20 -140 20 l-140 0 0 45 0 45 135 0 135 0 0 55 0 55 -153 0 -154 0 -6 -118z
m263 63 c0 -12 -19 -15 -110 -15 -91 0 -110 3 -110 15 0 12 19 15 110 15 91 0
110 -3 110 -15z m-20 -194 c0 -5 -6 -11 -12 -14 -10 -3 -10 -7 0 -19 11 -14 7
-17 -38 -23 -28 -4 -54 -5 -57 -2 -2 3 5 19 18 36 17 24 30 31 56 31 18 0 33
-4 33 -9z"/>
<path d="M11180 6519 c0 -20 4 -20 112 -17 98 3 113 5 116 21 3 15 -7 17 -112
17 -111 0 -116 -1 -116 -21z"/>
<path d="M10813 6490 c-5 -17 -14 -20 -64 -20 -52 0 -59 -2 -59 -20 0 -17 7
-20 50 -20 28 0 50 -4 50 -9 0 -12 -37 -35 -82 -52 -41 -14 -42 -16 -29 -38
16 -25 86 4 137 55 39 39 50 44 89 44 40 0 45 -2 45 -23 0 -32 -18 -47 -58
-47 -26 0 -33 -4 -30 -17 2 -13 15 -19 44 -21 58 -4 81 18 89 91 l6 57 -70 0
c-64 0 -71 2 -71 20 0 14 -7 20 -21 20 -12 0 -23 -8 -26 -20z"/>
<path d="M12556 12401 c-3 -4 5 -18 18 -30 23 -22 46 -15 31 9 -10 16 -43 31
-49 21z"/>
<path d="M12685 12398 c-2 -7 -3 -22 -2 -33 1 -15 -5 -21 -25 -23 l-28 -3 0
-85 c0 -64 3 -85 13 -81 6 2 12 15 12 28 0 22 5 24 43 24 45 0 60 -22 22 -32
-26 -7 -16 -23 15 -23 29 0 35 16 35 101 l0 69 -30 0 c-28 0 -30 3 -30 35 0
34 -16 48 -25 23z m55 -93 c0 -11 -11 -15 -39 -15 -38 0 -57 10 -44 24 3 3 24
6 45 6 27 0 38 -4 38 -15z m0 -45 c0 -5 -21 -10 -46 -10 -27 0 -43 4 -39 10 3
6 24 10 46 10 21 0 39 -4 39 -10z"/>
<path d="M12900 12400 c-8 -5 -25 -10 -37 -10 -22 0 -23 -4 -23 -65 l0 -65 41
0 c22 0 38 -3 35 -8 -6 -11 22 -47 31 -38 4 4 2 16 -5 26 -11 19 -9 20 28 20
l40 0 0 65 0 65 -34 0 c-19 0 -38 5 -41 10 -8 12 -16 12 -35 0z m87 -36 c-9
-9 -117 -10 -117 -1 0 4 28 7 62 7 34 0 59 -3 55 -6z m-2 -34 c4 -6 -17 -10
-54 -10 -34 0 -61 4 -61 10 0 6 24 10 54 10 30 0 58 -4 61 -10z m0 -40 c-3 -5
-31 -10 -61 -10 -30 0 -54 5 -54 10 0 6 27 10 61 10 37 0 58 -4 54 -10z"/>
<path d="M13180 12390 c0 -17 -7 -20 -50 -20 l-50 0 0 -65 c0 -51 3 -65 15
-65 8 0 15 4 15 8 0 4 15 8 33 7 31 0 32 -2 35 -42 4 -54 22 -56 22 -3 0 34 3
40 26 46 14 4 30 2 37 -5 27 -27 37 -12 37 54 l0 65 -50 0 c-43 0 -50 3 -50
20 0 11 -4 20 -10 20 -5 0 -10 -9 -10 -20z m0 -80 c0 -28 -3 -30 -35 -30 -32
0 -35 2 -35 30 0 28 3 30 35 30 32 0 35 -2 35 -30z m90 0 c0 -28 -3 -30 -35
-30 -32 0 -35 2 -35 30 0 28 3 30 35 30 32 0 35 -2 35 -30z"/>
<path d="M13370 12404 c0 -16 23 -44 35 -44 18 0 19 10 1 33 -12 16 -36 24
-36 11z"/>
<path d="M13620 12354 c-22 -40 -28 -60 -21 -67 8 -8 11 -7 11 3 0 7 3 10 7 7
3 -4 5 -34 4 -67 -2 -48 1 -60 13 -60 12 0 15 19 19 98 2 53 7 107 11 120 16
43 -12 22 -44 -34z"/>
<path d="M13747 12403 c-4 -3 -7 -15 -7 -25 0 -10 -7 -18 -15 -18 -9 0 -12 6
-9 15 4 9 0 15 -8 15 -9 0 -20 -17 -26 -39 -17 -56 -15 -70 7 -43 26 30 51 29
51 -3 0 -22 -4 -25 -35 -25 -24 0 -35 -5 -35 -15 0 -10 11 -15 35 -15 34 0 35
-1 35 -40 0 -29 4 -40 15 -40 11 0 15 11 15 39 0 37 2 40 33 43 17 2 32 8 32
13 0 6 -15 11 -32 13 -27 3 -33 8 -33 27 0 18 6 24 27 27 39 4 42 28 4 28 -26
0 -31 4 -31 25 0 24 -10 32 -23 18z"/>
<path d="M12620 12393 c0 -4 7 -17 15 -27 17 -23 34 -13 19 11 -12 19 -34 29
-34 16z"/>
<path d="M12740 12379 c-7 -11 -9 -23 -6 -26 8 -9 36 17 36 33 0 21 -18 17
-30 -7z"/>
<path d="M13440 12391 c0 -6 21 -11 48 -13 l47 -3 3 -88 c3 -83 2 -88 -20 -96
-20 -8 -21 -10 -5 -16 41 -17 47 -2 47 115 l0 110 -60 0 c-33 0 -60 -4 -60 -9z"/>
<path d="M15022 12378 c-7 -7 -12 -20 -12 -30 0 -10 -7 -18 -15 -18 -8 0 -15
-4 -15 -10 0 -5 7 -10 15 -10 12 0 15 -13 15 -55 0 -43 3 -55 16 -55 12 0 15
10 13 52 -3 43 0 54 14 56 21 4 23 22 2 22 -8 0 -15 7 -15 15 0 8 7 15 15 15
8 0 15 7 15 15 0 18 -31 20 -48 3z"/>
<path d="M15104 12377 c-9 -24 1 -177 11 -180 6 -1 11 13 13 31 l3 33 40 -36
c48 -43 71 -37 29 8 -16 18 -30 35 -30 38 0 3 11 16 25 29 14 13 25 27 25 31
0 13 -38 -2 -56 -22 -27 -30 -34 -23 -34 31 0 47 -14 67 -26 37z"/>
<path d="M14680 12289 c0 -68 3 -90 13 -86 7 2 11 16 9 34 -5 47 13 47 52 1
31 -36 66 -58 66 -41 0 3 -17 26 -39 52 l-39 46 35 40 c29 34 32 41 17 44 -11
2 -29 -10 -47 -33 -36 -45 -47 -45 -47 -1 0 19 -4 35 -10 35 -6 0 -10 -37 -10
-91z"/>
<path d="M13340 12270 c0 -82 3 -100 15 -100 12 0 15 18 15 100 0 82 -3 100
-15 100 -12 0 -15 -18 -15 -100z"/>
<path d="M12555 12340 c-10 -16 26 -53 39 -40 7 7 4 17 -11 31 -14 15 -23 18
-28 9z"/>
<path d="M13400 12275 l0 -65 50 0 50 0 0 65 0 65 -50 0 -50 0 0 -65z m80 30
c0 -10 -10 -15 -30 -15 -20 0 -30 5 -30 15 0 10 10 15 30 15 20 0 30 -5 30
-15z m0 -50 c0 -10 -10 -15 -30 -15 -29 0 -38 9 -23 23 13 13 53 7 53 -8z"/>
<path d="M14863 12333 c-25 -10 -12 -23 21 -23 51 0 52 -16 4 -32 -35 -11 -44
-18 -46 -40 -4 -32 20 -45 78 -43 35 2 35 2 38 53 2 41 -1 55 -17 71 -20 20
-51 25 -78 14z m67 -88 c0 -20 -39 -40 -52 -27 -6 6 -8 18 -5 26 8 20 57 21
57 1z"/>
<path d="M15267 12333 c-26 -7 -10 -23 23 -23 45 0 45 -18 1 -30 -78 -21 -56
-93 27 -86 l37 4 3 55 c3 48 0 57 -20 71 -22 16 -37 18 -71 9z m73 -81 c0 -17
-39 -44 -55 -39 -15 7 -20 28 -8 40 9 10 63 9 63 -1z"/>
<path d="M12570 12235 c-14 -33 -17 -52 -11 -58 7 -7 17 5 32 37 15 34 18 51
10 59 -7 7 -16 -4 -31 -38z"/>
<path d="M12872 12213 l3 -38 53 -3 c56 -3 72 10 57 46 -8 16 -8 16 -12 0 -5
-20 -44 -34 -68 -24 -8 3 -15 17 -15 31 0 14 -5 25 -11 25 -6 0 -9 -16 -7 -37z"/>
<path d="M12997 12244 c-9 -10 23 -54 40 -54 12 0 11 5 -4 30 -18 30 -25 35
-36 24z"/>
<path d="M12816 12214 c-12 -48 14 -44 29 4 4 16 2 22 -8 22 -8 0 -18 -12 -21
-26z"/>
<path d="M15000 11500 c0 -55 4 -100 9 -100 5 0 11 6 14 13 3 9 7 9 20 -2 40
-32 98 25 83 84 -9 36 -52 62 -77 47 -27 -17 -29 -16 -29 23 0 19 -4 35 -10
35 -6 0 -10 -40 -10 -100z m88 8 c17 -17 15 -48 -5 -70 -21 -24 -29 -23 -48 6
-30 45 16 101 53 64z"/>
<path d="M15160 11500 c0 -94 1 -100 18 -91 11 6 24 6 33 0 22 -14 37 -11 59
11 23 23 27 77 7 104 -13 17 -46 24 -77 15 -10 -3 -14 5 -15 25 0 16 -6 31
-13 34 -9 3 -12 -23 -12 -98z m84 14 c37 -37 6 -107 -37 -83 -32 18 -18 92 20
99 1 0 9 -7 17 -16z"/>
<path d="M15320 11585 c0 -8 7 -15 15 -15 8 0 15 7 15 15 0 8 -7 15 -15 15 -8
0 -15 -7 -15 -15z"/>
<path d="M14680 11494 c0 -72 3 -95 13 -91 6 2 12 19 12 37 0 45 28 48 57 7
26 -37 39 -48 50 -41 5 3 -1 19 -13 35 -19 28 -20 31 -5 48 9 10 16 29 16 44
0 40 -25 57 -81 57 l-49 0 0 -96z m81 66 c10 -6 19 -19 19 -29 0 -21 -19 -31
-56 -31 -20 0 -24 5 -24 28 0 43 20 53 61 32z"/>
<path d="M15482 11498 c3 -109 21 -121 28 -21 l5 67 31 -39 31 -38 36 39 36
39 1 -67 c0 -48 4 -68 13 -68 9 0 12 25 12 90 0 105 -10 113 -63 53 l-32 -38
-34 38 c-56 63 -67 53 -64 -55z"/>
<path d="M15732 11568 c-68 -74 0 -194 91 -160 22 8 34 9 44 1 7 -6 13 -10 14
-8 0 2 2 28 4 58 6 91 -21 131 -89 131 -31 0 -48 -6 -64 -22z m94 -6 c33 -22
46 -95 17 -90 -13 2 -17 -3 -16 -19 2 -20 -2 -23 -31 -23 -38 0 -53 14 -62 56
-10 53 51 104 92 76z"/>
<path d="M15400 11565 c0 -9 -7 -18 -15 -21 -19 -8 -20 -24 -1 -24 11 0 16
-15 18 -52 3 -49 5 -53 31 -56 15 -2 27 1 27 7 0 6 -6 11 -14 11 -31 0 -37 79
-6 87 26 7 26 19 0 26 -13 3 -18 10 -14 21 4 11 1 16 -10 16 -9 0 -16 -7 -16
-15z"/>
<path d="M14868 11543 c-31 -8 -20 -23 16 -23 35 0 59 -17 34 -24 -66 -18 -73
-22 -76 -48 -4 -34 21 -49 74 -44 l39 4 3 50 c4 73 -27 102 -90 85z m62 -88
c0 -20 -39 -40 -52 -27 -6 6 -8 18 -5 26 8 20 57 21 57 1z"/>
<path d="M15326 11543 c-3 -3 -6 -35 -6 -70 0 -49 3 -63 15 -63 12 0 15 14 15
64 0 60 -8 84 -24 69z"/>
<path d="M14566 10793 c-3 -21 -4 -56 -2 -78 3 -22 5 -48 5 -57 1 -11 9 -18
21 -18 21 0 27 15 10 25 -5 3 -10 42 -10 86 0 82 -14 107 -24 42z"/>
<path d="M15010 10815 c0 -8 7 -15 15 -15 8 0 15 7 15 15 0 8 -7 15 -15 15 -8
0 -15 -7 -15 -15z"/>
<path d="M15350 10815 c0 -8 7 -15 15 -15 8 0 15 7 15 15 0 8 -7 15 -15 15 -8
0 -15 -7 -15 -15z"/>
<path d="M15580 10736 c0 -52 4 -97 9 -100 5 -4 11 0 14 6 3 10 7 10 20 0 33
-28 86 10 87 61 0 46 -66 98 -85 67 -13 -21 -25 -9 -25 25 0 19 -4 35 -10 35
-6 0 -10 -38 -10 -94z m96 -10 c9 -38 -4 -66 -31 -66 -32 0 -48 30 -35 64 13
35 57 36 66 2z"/>
<path d="M14412 10728 l3 -93 54 0 c34 0 56 5 59 13 2 8 -10 12 -42 12 -44 0
-46 1 -46 30 0 28 2 30 40 30 22 0 40 5 40 10 0 6 -18 10 -40 10 -38 0 -40 2
-40 30 0 29 2 30 45 30 25 0 45 5 45 10 0 6 -27 10 -60 10 l-61 0 3 -92z"/>
<path d="M14929 10805 c-1 -3 -2 -10 -3 -15 0 -6 -8 -15 -16 -21 -11 -8 -12
-12 -2 -16 6 -2 12 -19 12 -36 0 -49 10 -75 31 -80 25 -7 37 13 15 25 -22 12
-23 88 -1 88 8 0 15 4 15 9 0 5 -7 11 -15 15 -8 3 -15 12 -15 21 0 13 -18 22
-21 10z"/>
<path d="M14653 10773 c-25 -9 -13 -22 25 -25 44 -4 49 -22 7 -26 -39 -5 -55
-19 -55 -48 0 -28 32 -48 63 -38 12 4 30 7 40 5 14 -2 17 6 17 48 0 72 -41
107 -97 84z m67 -88 c0 -20 -39 -40 -52 -27 -6 6 -8 18 -5 26 8 20 57 21 57 1z"/>
<path d="M14808 10773 c-19 -5 -33 -37 -22 -54 3 -6 22 -17 41 -25 42 -18 33
-38 -13 -31 -41 7 -45 -9 -7 -24 69 -26 106 48 38 77 -46 19 -45 34 3 34 35 1
36 2 18 15 -20 15 -28 16 -58 8z"/>
<path d="M15095 10755 c-14 -13 -25 -36 -25 -50 0 -29 40 -75 65 -75 22 0 55
18 55 30 0 5 -13 7 -30 4 -36 -8 -60 9 -60 41 0 32 24 49 60 41 34 -6 40 8 11
24 -30 16 -50 12 -76 -15z"/>
<path d="M15357 10774 c-4 -4 -7 -42 -7 -85 0 -53 -4 -79 -12 -82 -7 -2 -9 -8
-5 -13 4 -4 16 -3 25 2 13 9 18 29 20 89 3 73 -5 105 -21 89z"/>
<path d="M15436 10759 c-19 -15 -26 -30 -26 -54 0 -37 37 -75 72 -75 27 0 68
45 68 75 0 30 -41 75 -68 75 -11 0 -31 -9 -46 -21z m74 -23 c28 -35 -11 -93
-47 -70 -36 22 -23 84 17 84 10 0 23 -7 30 -14z"/>
<path d="M15012 10703 c4 -86 22 -85 26 2 2 54 0 65 -13 65 -13 0 -15 -11 -13
-67z"/>
<path d="M15220 10710 c0 -5 20 -10 45 -10 25 0 45 5 45 10 0 6 -20 10 -45 10
-25 0 -45 -4 -45 -10z"/>
<path d="M12645 10440 c4 -6 -13 -10 -44 -10 -49 0 -51 -1 -51 -27 0 -30 33
-53 77 -53 21 0 23 -4 23 -50 0 -27 -4 -50 -9 -50 -17 0 -39 40 -34 61 10 37
-12 18 -39 -33 -30 -55 -24 -91 7 -44 17 25 17 25 43 6 36 -25 162 -37 162
-15 0 11 -12 15 -50 15 -47 0 -50 2 -50 25 0 22 4 25 35 25 19 0 35 5 35 10 0
6 -16 10 -35 10 -28 0 -35 4 -35 20 0 16 7 20 30 20 21 0 30 5 30 16 0 13 -12
15 -80 12 -59 -2 -80 0 -80 10 0 13 3 14 80 17 68 3 90 -2 90 -21 0 -8 5 -14
10 -14 6 0 10 14 10 30 0 29 -1 30 -50 30 -27 0 -50 5 -50 10 0 6 -7 10 -16
10 -8 0 -12 -4 -9 -10z"/>
<path d="M12990 10431 c0 -16 -8 -20 -42 -23 -24 -2 -43 -7 -43 -13 0 -5 19
-11 43 -13 l42 -3 0 -70 c0 -67 -1 -69 -25 -69 -16 0 -25 -6 -25 -15 0 -18 50
-21 68 -3 7 7 12 41 12 81 0 55 4 73 18 83 16 12 16 13 0 19 -10 4 -18 16 -18
26 0 10 -7 19 -15 19 -8 0 -15 -9 -15 -19z"/>
<path d="M13095 10440 c-4 -6 1 -18 11 -25 36 -27 48 -11 15 19 -13 12 -21 14
-26 6z"/>
<path d="M13159 10445 c-1 0 -2 -36 -3 -79 -2 -90 -23 -119 -28 -40 -3 43 -5
48 -30 51 -20 3 -28 -1 -28 -12 0 -8 7 -15 15 -15 12 0 15 -13 15 -60 0 -57
10 -75 26 -48 5 7 11 3 17 -13 l9 -24 14 30 c7 17 13 47 14 68 l0 37 50 0 50
0 0 -50 c0 -36 -4 -52 -15 -56 -23 -9 -18 -26 8 -22 21 3 22 7 25 115 l3 111
-71 4 c-38 2 -71 3 -71 3z m61 -35 c0 -5 -7 -10 -15 -10 -20 0 -19 -10 1 -25
15 -11 15 -12 -5 -18 -18 -4 -21 -1 -21 29 0 27 4 34 20 34 11 0 20 -4 20 -10z
m60 -24 c0 -29 -3 -33 -20 -29 -23 6 -27 23 -5 23 8 0 15 5 15 10 0 6 -7 10
-15 10 -8 0 -15 5 -15 10 0 6 9 10 20 10 16 0 20 -7 20 -34z"/>
<path d="M13440 10440 c-8 -5 -32 -10 -52 -10 l-38 0 0 -68 c0 -37 -4 -83 -10
-102 -6 -22 -6 -38 0 -44 12 -12 25 23 35 92 6 42 11 52 26 52 12 0 19 -7 19
-20 0 -18 7 -20 55 -20 48 0 55 2 55 20 0 11 6 20 14 20 28 0 27 20 -1 32
l-28 12 28 4 c15 2 27 8 27 13 0 8 -36 14 -67 10 -6 -1 -14 3 -18 9 -8 13 -25
13 -45 0z m-20 -40 c0 -5 -9 -10 -20 -10 -11 0 -20 5 -20 10 0 6 9 10 20 10
11 0 20 -4 20 -10z m85 0 c-3 -5 -19 -10 -36 -10 -16 0 -29 5 -29 10 0 6 16
10 36 10 21 0 33 -4 29 -10z m-5 -50 c0 -5 -11 -10 -24 -10 -14 0 -28 5 -31
10 -4 6 7 10 24 10 17 0 31 -4 31 -10z"/>
<path d="M12815 10432 c-3 -3 -5 -50 -5 -104 0 -80 3 -98 15 -98 8 0 15 5 15
11 0 7 9 9 24 5 24 -6 24 -4 28 57 1 34 1 78 -2 97 -5 32 -8 35 -37 36 -18 0
-35 -1 -38 -4z m55 -47 c0 -16 -6 -25 -15 -25 -9 0 -15 9 -15 25 0 16 6 25 15
25 9 0 15 -9 15 -25z m0 -80 c0 -16 -6 -25 -15 -25 -9 0 -15 9 -15 25 0 16 6
25 15 25 9 0 15 -9 15 -25z"/>
<path d="M12920 10340 c0 -15 22 -60 30 -60 17 0 18 15 3 41 -17 29 -33 38
-33 19z"/>
<path d="M13190 10285 c0 -33 2 -35 35 -35 33 0 35 2 35 35 0 33 -2 35 -35 35
-33 0 -35 -2 -35 -35z m50 0 c0 -8 -7 -15 -15 -15 -16 0 -20 12 -8 23 11 12
23 8 23 -8z"/>
<path d="M13390 10304 c0 -3 11 -15 25 -26 30 -23 26 -33 -17 -42 -22 -4 -29
-9 -21 -17 7 -7 24 -7 55 1 33 9 56 9 84 1 48 -13 54 -14 54 -2 0 5 -13 12
-30 16 -35 8 -37 15 -10 40 11 10 17 22 14 26 -6 10 -154 13 -154 3z m110 -23
c0 -12 -29 -23 -41 -15 -18 10 -9 24 16 24 14 0 25 -4 25 -9z"/>
<path d="M14439 9993 c17 -21 31 -42 31 -48 0 -5 -14 -28 -30 -49 -33 -44 -37
-56 -16 -56 7 0 26 18 41 40 15 22 30 40 34 40 3 0 18 -18 33 -39 15 -21 34
-38 42 -38 22 0 20 6 -19 56 -19 24 -32 48 -28 55 4 6 18 26 31 44 24 32 24
32 3 32 -11 0 -21 -3 -21 -7 -1 -5 -10 -19 -21 -32 l-20 -25 -25 32 c-14 18
-34 32 -45 32 -19 0 -18 -4 10 -37z"/>
<path d="M14649 9991 c17 -21 31 -42 31 -46 0 -4 -14 -25 -31 -46 -44 -56 -30
-73 18 -22 l40 43 31 -38 c16 -21 37 -39 46 -39 22 0 21 4 -21 55 -25 30 -33
48 -27 57 5 7 19 27 32 44 23 30 23 31 3 31 -11 0 -30 -14 -42 -31 l-22 -32
-26 32 c-14 17 -34 31 -44 31 -16 0 -14 -6 12 -39z"/>
<path d="M14840 10011 c5 -11 15 -23 20 -26 31 -19 29 -43 -5 -86 -40 -50 -41
-56 -19 -56 9 0 28 17 43 38 14 21 29 38 32 39 4 0 18 -17 33 -38 14 -21 33
-39 41 -39 21 0 19 9 -15 55 -16 23 -30 45 -30 48 0 4 11 22 25 40 29 38 30
44 11 44 -8 0 -26 -14 -40 -32 l-25 -32 -20 25 c-11 13 -20 27 -21 32 0 4 -9
7 -20 7 -17 0 -19 -3 -10 -19z"/>
<path d="M15200 9973 c0 -86 -8 -105 -38 -101 -30 4 -41 -18 -14 -26 33 -11
70 10 74 41 5 47 -3 143 -13 143 -5 0 -9 -26 -9 -57z"/>
<path d="M15279 10004 c-36 -38 -34 -107 4 -140 49 -42 119 -27 143 32 29 70
-10 134 -81 134 -32 0 -47 -6 -66 -26z m110 -20 c25 -32 27 -61 5 -92 -24 -34
-84 -28 -102 11 -36 76 47 145 97 81z"/>
<path d="M15470 9936 l0 -93 52 2 c36 2 55 8 65 21 17 23 17 49 -1 64 -12 9
-13 17 -4 36 17 36 -13 64 -69 64 l-43 0 0 -94z m75 60 c16 -12 17 -16 6 -30
-27 -33 -72 -10 -57 29 7 19 26 19 51 1z m15 -81 c19 -22 5 -45 -28 -45 -36 0
-40 4 -34 35 5 29 42 35 62 10z"/>
<path d="M15025 9920 c3 -5 26 -10 51 -10 24 0 44 5 44 10 0 6 -23 10 -51 10
-31 0 -48 -4 -44 -10z"/>
<path d="M15646 9263 c-3 -3 -6 -19 -6 -35 0 -25 -2 -27 -19 -18 -28 14 -38
13 -61 -10 -30 -30 -27 -95 5 -116 21 -13 31 -15 50 -6 16 7 26 8 30 1 16 -24
25 10 25 91 0 82 -7 110 -24 93z m-18 -85 c17 -17 15 -54 -4 -72 -21 -22 -31
-20 -49 8 -30 45 16 101 53 64z"/>
<path d="M15710 9255 c0 -8 5 -15 10 -15 6 0 10 7 10 15 0 8 -4 15 -10 15 -5
0 -10 -7 -10 -15z"/>
<path d="M15222 9168 c2 -62 7 -93 16 -96 8 -2 12 8 12 32 0 32 3 36 25 36 14
0 25 -4 25 -9 0 -4 11 -20 25 -35 33 -35 52 -24 25 14 -24 34 -24 37 -5 56 22
22 18 60 -7 78 -13 9 -43 16 -71 16 l-48 0 3 -92z m94 58 c26 -20 8 -50 -35
-54 -30 -3 -31 -2 -31 32 0 31 3 36 23 36 13 0 32 -6 43 -14z"/>
<path d="M15406 9196 c-33 -32 -33 -70 -1 -101 24 -25 49 -31 79 -19 29 11 18
31 -14 26 -30 -4 -64 13 -55 28 3 4 25 6 50 4 44 -5 45 -4 45 24 0 33 -13 47
-52 57 -21 5 -33 1 -52 -19z m72 -27 c2 -12 -4 -16 -25 -14 -44 3 -46 4 -33
20 16 20 54 16 58 -6z"/>
<path d="M15788 9209 c-31 -17 -22 -53 17 -72 44 -21 46 -40 3 -35 -40 4 -48
-14 -12 -26 34 -11 74 7 74 34 0 13 -13 28 -35 41 -43 26 -45 43 -5 37 36 -5
42 16 8 26 -29 7 -30 7 -50 -5z"/>
<path d="M15710 9140 c0 -40 4 -70 10 -70 6 0 10 30 10 70 0 40 -4 70 -10 70
-6 0 -10 -30 -10 -70z"/>
<path d="M13902 8845 c-26 -53 -28 -69 -7 -61 20 7 19 -13 -2 -36 -9 -10 -13
-21 -10 -24 11 -11 78 7 84 22 8 21 23 17 23 -5 0 -19 -15 -35 -35 -36 -34 -2
-75 -19 -75 -31 0 -17 1 -17 36 -4 22 9 29 8 37 -5 8 -14 11 -14 28 6 10 12
19 26 19 32 0 5 7 4 16 -4 14 -12 14 -14 -5 -21 -29 -10 -28 -32 2 -21 22 7
61 8 86 2 7 -2 16 2 18 9 3 7 -4 12 -16 12 -22 0 -28 14 -11 25 6 3 10 13 10
21 0 10 -12 14 -40 14 -22 0 -40 5 -40 10 0 6 23 10 50 10 28 0 50 5 50 10 0
6 -23 10 -51 10 -31 0 -48 4 -44 10 3 6 23 10 44 10 l37 0 0 45 1 45 -66 -6
c-36 -4 -67 -8 -69 -9 -1 -1 2 -14 7 -27 7 -18 6 -29 -2 -37 -8 -8 -7 -11 6
-11 9 0 17 -4 17 -10 0 -5 -7 -10 -15 -10 -9 0 -18 -7 -21 -15 -6 -15 -34 -21
-34 -7 0 4 9 18 20 32 24 30 25 40 5 40 -8 0 -15 -4 -15 -10 0 -5 -5 -10 -11
-10 -7 0 -9 8 -5 20 3 11 9 29 12 40 12 38 -12 20 -34 -25z m128 -5 c0 -11 -4
-20 -10 -20 -5 0 -10 2 -10 4 0 2 -3 11 -6 20 -4 11 -1 16 10 16 9 0 16 -8 16
-20z m50 6 c0 -8 -4 -18 -10 -21 -5 -3 -10 -4 -10 -1 0 2 -3 11 -6 20 -4 11
-1 16 10 16 9 0 16 -6 16 -14z m-15 -136 c-3 -5 -10 -10 -16 -10 -5 0 -9 5 -9
10 0 6 7 10 16 10 8 0 12 -4 9 -10z"/>
<path d="M14225 8880 c-3 -5 -22 -10 -41 -10 -42 0 -42 -22 0 -30 l27 -5 -37
-43 c-35 -41 -36 -43 -15 -49 17 -4 21 -13 21 -49 0 -24 5 -44 10 -44 6 0 10
27 10 60 0 71 24 130 54 131 12 0 45 1 74 1 38 0 52 4 52 14 0 11 -16 14 -65
14 -37 0 -65 4 -65 10 0 6 -4 10 -9 10 -6 0 -13 -4 -16 -10z"/>
<path d="M14240 8804 c0 -13 8 -15 40 -12 22 2 40 1 40 -2 -1 -16 -32 -43 -52
-45 -13 -1 -29 -3 -35 -4 -30 -3 -10 -21 23 -21 31 0 35 -3 32 -22 -2 -13 -9
-23 -15 -23 -7 0 -13 -4 -13 -10 0 -5 12 -10 28 -10 23 0 27 4 30 33 3 28 7
32 33 32 20 0 29 5 29 16 0 12 -7 15 -30 12 -37 -5 -38 4 -5 26 46 30 32 46
-40 46 -53 0 -65 -3 -65 -16z"/>
<path d="M15676 8473 c-3 -3 -6 -19 -6 -35 0 -25 -2 -27 -19 -18 -28 14 -69
-4 -81 -36 -22 -57 26 -118 75 -96 16 7 26 8 30 1 16 -24 25 10 25 91 0 82 -7
110 -24 93z m-18 -85 c18 -18 14 -53 -8 -73 -16 -14 -22 -15 -34 -5 -22 18
-29 46 -16 70 12 22 40 26 58 8z"/>
<path d="M15735 8471 c-7 -12 12 -24 25 -16 11 7 4 25 -10 25 -5 0 -11 -4 -15
-9z"/>
<path d="M15245 8445 c-19 -18 -25 -35 -25 -69 0 -38 5 -48 32 -71 26 -22 39
-26 67 -21 42 6 70 31 55 46 -8 8 -15 6 -24 -5 -13 -16 -57 -20 -77 -7 -38 24
-34 100 7 122 24 13 70 6 70 -10 0 -6 7 -10 15 -10 20 0 19 13 -3 33 -28 26
-88 22 -117 -8z"/>
<path d="M15440 8417 c-56 -28 -48 -110 13 -131 74 -26 123 100 52 132 -32 15
-34 15 -65 -1z m67 -39 c14 -31 -3 -68 -32 -68 -27 0 -45 18 -45 45 0 46 59
63 77 23z"/>
<path d="M15740 8356 c0 -44 4 -76 10 -76 6 0 10 30 10 69 0 39 -4 73 -10 76
-6 4 -10 -22 -10 -69z"/>
<path d="M15822 8419 c-34 -13 -26 -50 15 -69 48 -22 43 -44 -8 -36 -48 8 -51
-12 -5 -27 70 -23 109 49 41 77 -44 19 -47 40 -5 34 20 -3 30 0 30 9 0 7 -4
13 -9 13 -5 0 -15 2 -23 4 -7 3 -23 1 -36 -5z"/>
<path d="M15490 7584 c0 -72 3 -95 13 -91 7 2 13 26 13 63 1 32 2 63 3 67 1 7
15 -9 59 -63 2 -3 19 12 38 34 l33 38 3 -68 c4 -102 23 -85 26 24 3 108 -6
116 -61 51 l-35 -40 -33 40 c-51 64 -59 56 -59 -55z"/>
<path d="M15899 7670 c-25 -15 -42 -65 -35 -104 8 -41 47 -76 85 -76 32 0 71
25 71 46 0 18 -8 18 -26 -1 -9 -8 -28 -15 -44 -15 -55 0 -80 75 -40 118 24 26
48 28 76 7 24 -18 34 -19 34 0 0 30 -83 47 -121 25z"/>
<path d="M16220 7654 c0 -9 -8 -23 -17 -30 -17 -12 -17 -13 -1 -14 13 0 18
-11 20 -52 3 -49 5 -53 31 -56 15 -2 27 1 27 7 0 6 -7 11 -15 11 -16 0 -16 0
-19 49 -1 25 3 35 16 39 24 6 23 18 -2 25 -13 3 -18 10 -14 21 4 11 1 16 -10
16 -9 0 -16 -7 -16 -16z"/>
<path d="M16073 7634 c-25 -11 -13 -24 21 -24 35 0 59 -17 34 -24 -66 -18 -73
-22 -76 -48 -4 -34 21 -49 74 -44 l39 4 3 48 c2 29 -2 56 -10 66 -14 18 -64
31 -85 22z m67 -89 c0 -20 -39 -40 -52 -27 -6 6 -8 18 -5 26 8 20 57 21 57 1z"/>
<path d="M15710 7625 c0 -3 12 -33 26 -66 26 -63 26 -89 -1 -89 -8 0 -15 -4
-15 -10 0 -12 30 -13 46 -2 11 7 74 146 74 163 0 5 -6 9 -13 9 -8 0 -20 -18
-27 -41 -8 -22 -17 -42 -21 -45 -4 -2 -15 16 -25 41 -9 25 -23 45 -30 45 -8 0
-14 -2 -14 -5z"/>
<path d="M12626 7505 c-3 -9 -19 -15 -41 -15 -19 0 -35 -4 -35 -10 0 -5 11
-10 25 -10 33 0 32 -17 -5 -62 -18 -21 -26 -39 -20 -43 5 -3 15 -3 20 0 6 4
10 -13 10 -44 0 -28 5 -51 10 -51 6 0 10 28 10 64 0 48 6 74 21 100 21 36 22
36 90 36 39 0 69 4 69 10 0 6 -28 10 -65 10 -51 0 -65 3 -65 15 0 8 -4 15 -9
15 -5 0 -11 -7 -15 -15z"/>
<path d="M12822 7458 c-21 -49 -21 -75 -1 -63 5 4 9 -21 9 -59 0 -37 4 -66 10
-66 6 0 10 32 10 75 0 72 1 75 19 65 17 -9 19 -18 15 -60 -6 -62 1 -77 27 -54
19 17 27 60 9 49 -6 -4 -10 12 -10 39 0 46 -4 50 -42 47 -18 -2 -23 15 -12 44
6 14 9 14 29 -5 16 -15 25 -18 30 -10 10 16 -18 43 -48 46 -20 2 -27 -6 -45
-48z"/>
<path d="M12953 7495 c-7 -8 -13 -18 -13 -24 0 -5 6 -12 13 -15 8 -3 7 -8 -5
-16 -10 -6 -18 -15 -18 -20 0 -6 8 -10 18 -10 14 0 12 -4 -8 -20 -17 -14 -21
-22 -13 -28 6 -4 13 -25 15 -47 3 -39 3 -39 46 -40 l42 -1 0 58 c0 45 -3 58
-15 58 -8 0 -15 5 -15 10 0 6 8 10 18 10 25 0 34 11 21 26 -7 9 -7 19 0 32 13
25 4 33 -25 26 -15 -4 -24 -2 -24 5 0 15 -23 13 -37 -4z m57 -135 c0 -5 -9
-10 -20 -10 -11 0 -20 5 -20 10 0 6 9 10 20 10 11 0 20 -4 20 -10z m-2 -42
c-7 -19 -38 -22 -38 -4 0 10 9 16 21 16 12 0 19 -5 17 -12z"/>
<path d="M12640 7430 c0 -5 18 -10 40 -10 22 0 40 -2 40 -5 0 -16 -45 -45 -70
-45 -20 0 -30 -5 -30 -15 0 -10 11 -15 35 -15 28 0 35 -4 35 -19 0 -11 -9 -21
-22 -25 -17 -4 -20 -8 -11 -17 7 -7 22 -9 37 -5 21 5 26 13 26 36 0 27 3 30
30 30 20 0 30 5 30 15 0 10 -10 15 -32 15 l-32 0 27 28 c15 15 27 31 27 35 0
4 -29 7 -65 7 -37 0 -65 -4 -65 -10z"/>
<path d="M13897 7304 c-3 -3 -3 -13 0 -21 3 -8 0 -19 -8 -23 -11 -7 -10 -10 4
-16 16 -6 17 -8 2 -24 -9 -10 -12 -21 -7 -24 5 -3 15 1 22 9 7 8 16 15 20 15
11 0 0 -40 -11 -41 -5 -1 -13 -2 -18 -3 -19 -2 -23 -16 -7 -22 9 -3 13 -10 10
-15 -3 -6 -1 -16 5 -23 9 -11 6 -15 -11 -19 -17 -5 -20 -9 -11 -18 8 -8 16 -8
32 0 21 12 78 10 98 -2 5 -4 18 2 28 13 18 20 18 20 41 -1 30 -28 44 -5 15 25
-20 21 -21 26 -9 77 6 30 16 57 21 60 17 12 -2 26 -28 21 -21 -3 -27 0 -32 17
-8 29 -21 26 -29 -6 -3 -16 -10 -41 -15 -57 -10 -32 -4 -47 15 -40 21 8 28
-47 9 -68 -28 -31 -69 -14 -43 17 18 22 4 48 -21 42 -15 -4 -19 -2 -15 10 3 8
6 19 6 25 0 7 5 6 14 -1 9 -8 16 -8 20 -2 4 5 -2 14 -11 20 -15 8 -15 10 -2
11 10 0 15 10 15 35 0 42 -11 45 -24 8 l-10 -28 -1 28 c-1 16 -7 27 -15 27 -9
0 -12 -7 -9 -19 3 -10 0 -22 -6 -25 -7 -4 -11 1 -11 13 0 21 -13 35 -23 25z
m179 -70 c-3 -9 -6 -25 -6 -37 0 -27 -16 -11 -25 26 -6 23 -4 27 15 27 16 0
20 -4 16 -16z m-111 -94 c-3 -5 -13 -10 -21 -10 -8 0 -14 5 -14 10 0 6 9 10
21 10 11 0 17 -4 14 -10z"/>
<path d="M14180 7290 c0 -12 -9 -24 -22 -29 l-22 -8 22 -12 c28 -15 29 -51 2
-58 -22 -6 -22 -28 0 -28 19 0 22 -41 5 -55 -22 -18 -18 -32 8 -28 18 2 23 10
25 48 2 24 9 51 15 59 9 11 9 15 0 18 -7 3 -13 13 -13 23 0 10 6 20 13 23 10
4 10 7 0 18 -7 7 -13 21 -13 31 0 10 -4 18 -10 18 -5 0 -10 -9 -10 -20z"/>
<path d="M14515 7300 c4 -6 -12 -10 -39 -10 l-46 0 0 -37 c0 -21 -5 -66 -10
-101 -6 -35 -8 -68 -4 -74 13 -20 27 25 33 106 6 79 7 81 34 84 19 2 27 -1 27
-12 0 -10 -9 -16 -25 -16 -14 0 -25 -4 -25 -10 0 -5 7 -10 16 -10 11 0 14 -5
9 -17 -12 -33 -10 -37 23 -43 49 -8 43 -25 -10 -28 -61 -4 -63 -22 -2 -22 37
0 47 -4 51 -20 3 -11 9 -20 14 -20 5 0 9 9 9 20 0 17 7 20 40 20 22 0 40 5 40
10 0 6 -18 10 -40 10 -29 0 -40 4 -40 15 0 9 6 15 13 14 26 -3 47 1 47 11 0 6
-13 10 -30 10 -20 0 -30 5 -30 15 0 8 -4 15 -9 15 -5 0 -11 -7 -15 -15 -6 -15
-36 -21 -36 -7 0 20 28 32 72 32 26 0 48 5 48 10 0 6 -20 10 -45 10 -33 0 -45
4 -45 15 0 11 12 15 50 15 28 0 50 5 50 10 0 6 -20 10 -44 10 -25 0 -48 5 -51
10 -3 6 -13 10 -21 10 -8 0 -12 -4 -9 -10z"/>
<path d="M14230 7226 c0 -40 -5 -88 -11 -105 -8 -22 -8 -36 -1 -43 10 -10 28
32 34 82 3 29 48 43 48 16 0 -9 -8 -16 -20 -16 -17 0 -20 -7 -20 -43 l0 -43
55 0 55 1 0 43 c0 35 -3 42 -20 42 -11 0 -20 7 -20 15 0 9 9 15 25 15 14 0 25
5 25 10 0 6 -11 10 -25 10 -16 0 -25 6 -25 16 0 10 7 14 23 12 18 -2 23 2 25
30 l3 32 -75 0 -76 0 0 -74z m120 44 c0 -5 -20 -10 -45 -10 -25 0 -45 5 -45
10 0 6 20 10 45 10 25 0 45 -4 45 -10z m-52 -47 c2 -8 -5 -13 -17 -13 -12 0
-21 6 -21 16 0 18 31 15 38 -3z m52 -103 c0 -16 -7 -20 -30 -20 -23 0 -30 4
-30 20 0 16 7 20 30 20 23 0 30 -4 30 -20z"/>
<path d="M16210 6885 c0 -8 7 -15 15 -15 8 0 15 7 15 15 0 8 -7 15 -15 15 -8
0 -15 -7 -15 -15z"/>
<path d="M15501 6876 c-24 -28 -9 -60 42 -86 29 -15 46 -31 45 -40 -4 -19 -50
-25 -77 -11 -24 13 -42 -6 -20 -20 42 -28 102 -22 119 11 18 33 2 60 -47 82
-31 14 -43 24 -41 36 3 13 13 16 42 15 26 -2 36 1 33 10 -6 18 -81 21 -96 3z"/>
<path d="M15650 6795 c0 -57 4 -95 10 -95 6 0 10 3 11 8 0 4 2 26 3 50 4 49
15 66 42 60 16 -3 20 -14 22 -61 4 -72 26 -73 30 -1 4 64 -13 88 -62 87 -33
-1 -36 1 -32 23 3 16 0 24 -10 24 -11 0 -14 -19 -14 -95z"/>
<path d="M16150 6859 c0 -26 -3 -30 -17 -24 -70 30 -127 -63 -71 -115 25 -23
48 -26 67 -7 11 10 14 10 18 0 13 -37 23 -2 23 82 0 57 -4 95 -10 95 -5 0 -10
-14 -10 -31z m-9 -65 c11 -30 -10 -74 -36 -74 -17 0 -35 30 -35 57 0 46 55 59
71 17z"/>
<path d="M16770 6823 c0 -78 -8 -96 -40 -91 -13 1 -25 -2 -27 -9 -6 -17 41
-27 66 -13 19 10 21 20 21 95 0 50 -4 85 -10 85 -6 0 -10 -29 -10 -67z"/>
<path d="M16832 6798 c3 -105 8 -110 86 -89 44 12 62 41 62 97 0 54 -36 84
-100 84 l-51 0 3 -92z m105 51 c18 -16 17 -84 -3 -103 -8 -9 -29 -16 -45 -16
l-29 0 0 71 0 72 32 -7 c17 -3 37 -11 45 -17z"/>
<path d="M17012 6798 l3 -93 34 -3 c39 -4 87 14 95 35 4 8 0 29 -9 45 -10 22
-12 35 -5 49 17 30 -20 59 -75 59 l-46 0 3 -92z m83 55 c16 -16 16 -17 -1 -30
-32 -23 -54 -16 -54 17 0 23 5 30 19 30 11 0 27 -8 36 -17z m10 -77 c16 -12
17 -16 6 -30 -7 -9 -26 -16 -42 -16 -26 0 -29 4 -29 30 0 25 4 30 23 30 13 0
32 -6 42 -14z"/>
<path d="M17212 6883 c-19 -7 -42 -58 -42 -93 0 -42 47 -90 88 -90 37 0 82 34
66 50 -8 8 -14 7 -24 -5 -17 -21 -63 -19 -83 3 -23 25 -21 78 3 102 24 24 49
25 76 5 24 -18 34 -19 34 0 0 28 -74 46 -118 28z"/>
<path d="M15828 6843 c-31 -8 -19 -23 17 -23 24 0 35 -5 35 -15 0 -8 -9 -15
-21 -15 -34 0 -59 -19 -59 -45 0 -31 26 -45 76 -42 35 3 39 6 42 31 6 52 -7
92 -34 104 -26 12 -28 13 -56 5z m62 -88 c0 -22 -38 -39 -55 -25 -21 17 -6 40
26 40 19 0 29 -5 29 -15z"/>
<path d="M16005 6840 c-3 -5 -17 -7 -31 -4 -25 6 -25 6 -22 -61 4 -85 25 -102
30 -23 2 44 7 55 26 63 12 5 22 13 22 17 0 12 -18 19 -25 8z"/>
<path d="M16321 6841 c-7 -5 -21 -7 -30 -4 -14 4 -16 -5 -13 -66 4 -79 22 -98
22 -23 0 50 12 72 41 72 21 0 29 -20 29 -77 0 -31 4 -43 13 -40 8 2 12 24 12
61 -1 45 -5 61 -20 72 -22 16 -34 17 -54 5z"/>
<path d="M16460 6837 c-32 -17 -45 -59 -28 -94 12 -24 19 -28 56 -28 31 0 41
-4 37 -13 -3 -8 -5 -16 -5 -18 0 -2 -18 -4 -40 -4 -22 0 -40 -4 -40 -9 0 -14
59 -21 84 -10 29 14 36 35 36 116 0 61 0 62 -29 61 -15 -1 -32 2 -38 5 -5 3
-20 0 -33 -6z m58 -29 c28 -28 3 -84 -34 -76 -28 5 -40 33 -26 62 12 28 40 34
60 14z"/>
<path d="M16212 6773 c2 -42 8 -68 16 -71 9 -3 12 15 12 67 0 57 -3 71 -15 71
-13 0 -15 -12 -13 -67z"/>
<path d="M16600 6780 c0 -5 20 -10 45 -10 25 0 45 5 45 10 0 6 -20 10 -45 10
-25 0 -45 -4 -45 -10z"/>
<path d="M13945 6095 c-22 -19 -46 -35 -52 -35 -7 0 -13 -7 -13 -15 0 -11 7
-14 25 -9 15 4 25 2 25 -5 0 -6 14 -11 30 -11 45 0 39 -28 -7 -32 -52 -4 -56
-28 -4 -28 34 0 41 -3 41 -20 0 -17 -7 -20 -50 -20 -38 0 -50 -4 -50 -15 0
-12 19 -15 110 -15 91 0 110 3 110 15 0 11 -12 15 -50 15 -43 0 -50 3 -50 20
0 17 7 20 41 20 52 0 48 24 -4 28 -24 2 -37 8 -37 18 0 13 18 19 48 15 6 -1
12 3 12 10 0 7 9 9 25 5 18 -5 25 -2 25 9 0 8 -5 15 -11 15 -7 0 -31 16 -55
35 -23 19 -48 35 -56 35 -7 -1 -31 -16 -53 -35z m90 -20 l30 -25 -65 0 -65 0
30 25 c17 13 32 24 35 24 3 0 19 -11 35 -24z"/>
<path d="M14230 6122 c0 -4 5 -13 12 -20 9 -9 0 -12 -40 -12 -40 0 -52 -4 -52
-15 0 -8 8 -15 18 -15 14 0 72 -85 72 -106 0 -3 -24 -16 -52 -29 -40 -17 -49
-25 -36 -30 10 -4 36 4 66 20 l48 26 45 -25 c24 -14 50 -26 57 -26 25 0 11 20
-27 40 -22 11 -42 23 -45 28 -3 5 5 29 17 55 16 34 28 46 45 47 13 0 22 6 22
15 0 11 -12 15 -50 15 -39 0 -52 4 -60 20 -10 19 -40 28 -40 12z m60 -102
c-11 -22 -23 -40 -25 -40 -7 0 -45 62 -45 73 0 4 20 7 45 7 l45 0 -20 -40z"/>
<path d="M14440 6105 c0 -16 -6 -25 -15 -25 -8 0 -15 -4 -15 -10 0 -5 7 -10
15 -10 10 0 15 -10 15 -30 0 -20 -5 -30 -15 -30 -8 0 -15 -7 -15 -15 0 -8 7
-15 15 -15 9 0 15 -9 15 -25 0 -14 -7 -28 -15 -31 -23 -9 -18 -26 8 -22 18 2
23 10 25 48 2 26 10 48 18 53 18 10 18 27 -1 27 -8 0 -15 9 -15 20 0 12 7 20
17 20 15 0 15 1 0 18 -10 10 -17 26 -17 35 0 9 -4 17 -10 17 -5 0 -10 -11 -10
-25z"/>
<path d="M14510 6118 c-15 -6 -18 -15 -15 -45 2 -21 4 -44 4 -50 1 -7 12 -13
26 -13 14 0 25 -4 25 -10 0 -5 -13 -10 -30 -10 -35 0 -37 -3 -10 -30 27 -27
25 -37 -6 -44 -19 -5 -24 -10 -16 -18 7 -7 20 -7 44 1 25 8 43 8 67 0 23 -8
36 -8 43 -1 8 8 3 13 -16 18 -24 6 -37 24 -18 24 5 0 14 11 20 25 11 24 10 25
-18 25 -38 0 -40 18 -2 22 25 3 27 7 30 56 3 50 2 52 -22 52 -27 0 -36 -15
-13 -23 9 -3 9 -7 -2 -20 -9 -11 -10 -17 -2 -17 6 0 11 -7 11 -15 0 -8 -7 -15
-15 -15 -11 0 -15 12 -15 49 0 46 -1 49 -26 47 -14 0 -34 -4 -44 -8z m42 -70
c-5 -19 -32 -25 -32 -8 0 6 5 10 10 10 14 0 12 27 -2 33 -10 4 -9 8 2 16 12 8
16 6 21 -12 3 -12 3 -30 1 -39z m35 -95 c-16 -16 -18 -16 -34 0 -16 16 -15 17
17 17 32 0 33 -1 17 -17z"/>
<path d="M14775 6120 c-3 -5 -24 -10 -46 -10 -21 0 -39 -4 -39 -10 0 -5 20
-10 45 -10 25 0 45 -4 45 -10 0 -5 -22 -10 -50 -10 -47 0 -50 -2 -50 -25 0
-14 5 -25 10 -25 6 0 10 7 10 15 0 10 10 15 33 14 32 0 32 0 10 -16 -13 -8
-23 -19 -23 -24 0 -4 10 -9 23 -12 20 -3 19 -5 -10 -16 -45 -17 -41 -31 7 -31
33 0 40 -3 40 -20 0 -11 -7 -20 -15 -20 -8 0 -15 -4 -15 -10 0 -5 11 -10 24
-10 21 0 25 6 28 33 2 25 8 33 26 35 13 2 29 -2 37 -8 22 -18 30 8 9 31 -17
19 -50 27 -40 10 5 -8 -45 -23 -52 -16 -2 2 10 11 27 20 50 25 40 45 -13 25
-30 -11 -34 -3 -8 16 24 19 92 18 92 -1 0 -8 5 -15 10 -15 6 0 10 11 10 25 0
23 -3 25 -50 25 -27 0 -50 5 -50 10 0 6 20 10 45 10 25 0 45 5 45 10 0 6 -18
10 -39 10 -22 0 -43 5 -46 10 -3 6 -10 10 -15 10 -5 0 -12 -4 -15 -10z"/>
<path d="M15900 6027 c0 -56 5 -90 14 -103 8 -10 16 -17 18 -14 2 3 2 49 0
103 -3 75 -7 97 -18 97 -11 0 -14 -18 -14 -83z"/>
<path d="M16350 6095 c0 -8 7 -15 15 -15 8 0 15 7 15 15 0 8 -7 15 -15 15 -8
0 -15 -7 -15 -15z"/>
<path d="M15752 6008 l3 -93 58 -3 c46 -2 57 0 57 13 0 11 -11 15 -45 15 -43
0 -45 1 -45 30 0 28 2 30 40 30 22 0 40 5 40 10 0 6 -18 10 -40 10 -38 0 -40
2 -40 30 0 29 2 30 45 30 25 0 45 5 45 10 0 6 -27 10 -60 10 l-61 0 3 -92z"/>
<path d="M17232 6008 c2 -62 7 -93 16 -96 8 -2 12 10 12 41 0 57 8 77 29 77
29 0 41 -22 41 -72 0 -26 5 -48 10 -48 11 0 13 109 2 126 -12 18 -42 24 -63
14 -17 -10 -19 -7 -19 20 0 20 -5 30 -15 30 -13 0 -15 -15 -13 -92z"/>
<path d="M16260 6071 c0 -11 -6 -22 -12 -25 -10 -5 -10 -7 0 -12 7 -3 12 -24
12 -49 0 -44 21 -80 43 -72 18 6 20 27 3 27 -12 0 -16 11 -16 45 0 33 4 45 15
45 8 0 15 5 15 10 0 6 -7 10 -15 10 -8 0 -15 9 -15 20 0 11 -7 20 -15 20 -8 0
-15 -9 -15 -19z"/>
<path d="M15998 6053 c-31 -8 -20 -22 20 -25 45 -4 49 -22 6 -26 -18 -2 -40
-12 -49 -22 -16 -18 -16 -21 -1 -44 14 -22 22 -25 64 -21 l47 3 -3 58 c-1 32
-5 61 -10 65 -10 11 -54 18 -74 12z m62 -88 c0 -8 -10 -19 -21 -26 -17 -9 -25
-8 -38 5 -14 15 -14 18 -1 26 23 15 60 12 60 -5z"/>
<path d="M16143 6050 c-35 -14 -29 -47 12 -71 44 -26 45 -42 3 -37 -41 4 -51
-14 -15 -26 37 -13 77 6 77 37 0 17 -10 28 -35 40 -43 21 -46 41 -5 35 20 -3
30 0 30 9 0 7 -4 13 -9 13 -5 0 -15 2 -23 4 -7 3 -23 1 -35 -4z"/>
<path d="M16444 6047 c-27 -15 -34 -27 -34 -64 0 -52 55 -87 99 -63 34 17 24
29 -21 27 -40 -2 -43 0 -46 26 -5 41 15 60 55 52 19 -3 33 -2 33 4 0 22 -57
34 -86 18z"/>
<path d="M16583 6050 c-38 -15 -31 -57 12 -74 47 -20 45 -38 -2 -34 -43 3 -47
-12 -7 -26 68 -22 101 44 37 74 -42 20 -44 44 -3 38 20 -3 30 0 30 9 0 7 -4
13 -9 13 -5 0 -15 2 -23 4 -7 3 -23 1 -35 -4z"/>
<path d="M16730 6053 c-55 -20 -68 -87 -24 -122 27 -21 50 -26 78 -15 31 12
16 29 -26 29 -24 0 -43 5 -45 13 -3 8 10 12 46 12 47 0 51 2 51 23 0 42 -42
73 -80 60z m45 -43 c0 -10 -12 -16 -32 -18 -35 -3 -41 6 -21 26 17 17 53 11
53 -8z"/>
<path d="M16868 6053 c-29 -7 -21 -21 14 -25 39 -4 51 -28 14 -28 -14 0 -35
-9 -47 -21 -18 -18 -19 -23 -6 -42 12 -18 24 -22 63 -22 48 1 49 1 48 30 -1
17 -2 44 -3 61 -1 23 -8 34 -26 42 -27 12 -29 13 -57 5z m62 -88 c0 -18 -34
-37 -54 -29 -19 7 -20 16 -4 32 17 17 58 15 58 -3z"/>
<path d="M17041 6051 c-7 -5 -22 -6 -33 -3 -18 4 -19 0 -16 -64 3 -77 21 -94
26 -24 2 34 9 50 28 66 26 21 21 41 -5 25z"/>
<path d="M17125 6050 c-32 -13 -47 -36 -43 -71 4 -44 47 -77 85 -63 39 14 42
35 4 28 -37 -8 -61 9 -61 41 0 32 23 48 60 40 34 -7 41 8 11 25 -23 12 -29 12
-56 0z"/>
<path d="M16350 5979 c0 -52 3 -70 13 -67 7 3 13 29 15 71 2 55 0 67 -13 67
-12 0 -15 -14 -15 -71z"/>
<path d="M14825 5939 c-4 -6 -5 -11 -4 -12 2 -1 19 -10 36 -19 21 -11 35 -13
39 -7 7 12 7 12 -33 33 -21 11 -34 12 -38 5z"/>
<path d="M14703 5928 c-36 -17 -30 -39 6 -27 39 14 62 39 35 38 -11 0 -29 -5
-41 -11z"/>
<path d="M15057 5319 c-11 -42 -2 -160 13 -169 20 -12 38 6 22 22 -7 7 -12 43
-12 90 0 74 -11 102 -23 57z"/>
<path d="M14431 5304 c-24 -30 -28 -99 -8 -125 17 -22 51 -39 80 -39 31 0 73
32 63 49 -6 9 -12 8 -26 -4 -43 -39 -119 12 -104 69 3 15 18 34 31 43 23 15
27 15 59 -2 40 -21 55 -14 29 15 -28 31 -97 28 -124 -6z"/>
<path d="M14620 5280 c-27 -8 -16 -16 29 -22 37 -5 39 -28 3 -28 -31 0 -62
-22 -62 -43 1 -30 21 -42 70 -43 l50 -1 0 58 c0 48 -4 60 -22 73 -24 17 -30
18 -68 6z m65 -79 c5 -9 -20 -41 -33 -41 -18 1 -34 20 -29 34 7 17 52 22 62 7z"/>
<path d="M14801 5281 c-7 -5 -22 -6 -32 -4 -17 5 -19 -1 -19 -67 0 -53 3 -71
13 -68 7 3 14 28 17 59 5 50 7 54 30 54 23 0 25 -4 30 -55 6 -70 24 -67 28 4
3 47 0 56 -20 70 -26 18 -28 19 -47 7z"/>
<path d="M14928 5283 c-31 -8 -20 -23 16 -23 35 0 59 -17 34 -24 -66 -18 -73
-22 -76 -49 -4 -34 38 -58 68 -39 14 8 20 8 22 0 2 -6 10 -8 16 -4 16 10 15
98 0 119 -14 18 -53 28 -80 20z m60 -89 c-5 -25 -35 -41 -49 -27 -18 18 -3 43
26 43 19 0 26 -5 23 -16z"/>
<path d="M12557 4563 c-4 -3 -2 -14 3 -24 7 -12 6 -19 -3 -22 -9 -4 -8 -8 3
-17 11 -9 12 -13 3 -17 -15 -6 -18 -33 -3 -33 5 0 13 8 19 17 5 10 13 15 16
11 12 -12 -4 -40 -25 -45 -21 -6 -28 -23 -9 -23 6 0 9 -7 6 -15 -4 -8 -2 -17
4 -21 6 -3 3 -11 -8 -19 -25 -19 -9 -30 24 -16 28 11 70 10 90 -2 5 -4 18 2
28 13 18 20 18 20 41 -1 34 -32 52 -13 19 21 -22 23 -24 31 -15 54 5 15 10 41
10 57 0 16 5 29 10 29 6 0 10 4 10 9 0 6 -15 11 -32 13 -25 2 -32 7 -30 21 2
9 -3 17 -10 17 -11 0 -19 -21 -40 -110 -2 -9 3 -14 13 -12 21 3 33 -41 19 -68
-6 -11 -19 -20 -30 -20 -22 0 -35 16 -20 25 5 3 10 15 10 26 0 14 -7 19 -25
19 -14 0 -25 3 -25 8 0 13 17 33 26 31 21 -4 26 2 14 16 -10 12 -10 15 4 15 9
0 16 5 16 10 0 6 -5 10 -11 10 -6 0 -8 9 -4 21 5 16 3 20 -6 17 -8 -3 -13 -13
-13 -22 1 -9 -2 -16 -7 -16 -5 0 -9 11 -9 25 0 14 -4 25 -10 25 -5 0 -10 -11
-10 -25 0 -14 -4 -25 -10 -25 -5 0 -10 9 -10 19 0 21 -13 35 -23 24z m183 -72
c0 -28 -11 -52 -21 -45 -16 9 -11 64 6 64 8 0 15 -9 15 -19z m-110 -90 c0 -14
-18 -23 -30 -16 -6 4 -8 11 -5 16 8 12 35 12 35 0z"/>
<path d="M12840 4545 c0 -16 -6 -25 -15 -25 -8 0 -15 -4 -15 -10 0 -5 7 -10
15 -10 10 0 15 -10 15 -30 0 -20 -5 -30 -15 -30 -8 0 -15 -7 -15 -15 0 -8 7
-15 15 -15 9 0 15 -9 15 -25 0 -14 -7 -28 -15 -31 -23 -9 -18 -26 8 -22 19 3
22 10 25 51 2 26 7 47 13 47 5 0 9 7 9 15 0 8 -4 15 -10 15 -18 0 -11 40 8 40
16 1 16 1 0 14 -10 7 -18 23 -18 35 0 11 -4 21 -10 21 -5 0 -10 -11 -10 -25z"/>
<path d="M13440 4530 c0 -33 -3 -40 -20 -40 -16 0 -20 7 -20 30 0 20 -5 30
-15 30 -10 0 -15 -10 -15 -29 0 -21 -6 -30 -21 -34 -37 -10 -10 -27 42 -27
l49 0 0 -35 c0 -24 5 -35 15 -35 10 0 15 11 15 35 l0 35 50 0 c38 0 50 4 50
15 0 11 -12 15 -50 15 -38 0 -50 4 -50 15 0 11 11 15 40 15 22 0 40 5 40 10 0
6 -18 10 -40 10 -29 0 -40 4 -40 15 0 8 -7 15 -15 15 -11 0 -15 -11 -15 -40z"/>
<path d="M12900 4502 c0 -33 -7 -81 -15 -107 -14 -47 -12 -71 5 -60 4 3 13 27
20 55 10 43 15 50 36 50 30 0 32 -17 2 -22 -18 -2 -23 -10 -25 -44 l-2 -40 54
0 55 1 0 43 c0 35 -3 42 -20 42 -29 0 -25 18 5 22 14 2 26 8 26 13 0 6 -12 11
-26 13 -32 4 -33 22 0 22 22 0 25 4 25 35 l0 35 -70 0 -70 0 0 -58z m110 23
c-7 -14 -83 -11 -88 4 -3 9 9 11 44 9 27 -2 47 -7 44 -13z m-40 -45 c0 -5 -11
-10 -25 -10 -14 0 -25 5 -25 10 0 6 11 10 25 10 14 0 25 -4 25 -10z m40 -105
c0 -10 -10 -15 -30 -15 -20 0 -30 5 -30 15 0 10 10 15 30 15 20 0 30 -5 30
-15z"/>
<path d="M13080 4445 c0 -96 3 -115 15 -115 12 0 15 18 15 105 l0 105 80 0 80
0 0 -95 c0 -88 -1 -95 -20 -95 -11 0 -20 -4 -20 -10 0 -17 57 -12 64 6 3 9 6
60 6 115 l0 99 -110 0 -110 0 0 -115z"/>
<path d="M14590 4511 c0 -11 -6 -22 -12 -25 -10 -5 -10 -7 0 -12 7 -3 12 -25
12 -54 0 -39 4 -52 20 -60 21 -11 40 -6 40 11 0 5 -7 9 -15 9 -11 0 -15 12
-15 45 0 33 4 45 15 45 8 0 15 5 15 10 0 6 -7 10 -15 10 -8 0 -15 9 -15 20 0
11 -7 20 -15 20 -8 0 -15 -9 -15 -19z"/>
<path d="M14690 4515 c0 -7 -8 -19 -17 -25 -17 -10 -17 -10 0 -20 12 -8 17
-24 17 -55 0 -34 5 -47 20 -55 20 -11 40 -6 40 9 0 5 -9 11 -20 14 -30 8 -28
75 2 86 l22 8 -22 12 c-12 6 -22 18 -22 26 0 8 -4 15 -10 15 -5 0 -10 -7 -10
-15z"/>
<path d="M13120 4500 c0 -6 30 -10 70 -10 40 0 70 4 70 10 0 6 -30 10 -70 10
-40 0 -70 -4 -70 -10z"/>
<path d="M14450 4488 c-31 -12 -40 -25 -40 -65 0 -85 117 -99 133 -16 11 57
-39 101 -93 81z m61 -39 c26 -50 -39 -97 -69 -49 -9 15 -9 25 0 45 14 31 53
34 69 4z"/>
<path d="M14810 4493 c-66 -23 -45 -143 24 -143 63 0 75 27 14 32 -60 4 -61
26 -1 30 45 3 48 5 45 28 -4 39 -46 66 -82 53z m49 -36 c14 -18 4 -27 -31 -27
-26 0 -37 17 -21 33 11 12 40 8 52 -6z"/>
<path d="M14930 4418 c0 -39 4 -68 10 -68 6 0 10 18 10 41 0 47 14 79 35 79 8
0 15 4 15 9 0 5 -16 9 -35 8 l-35 -1 0 -68z"/>
<path d="M13140 4425 l0 -45 50 0 50 0 0 45 0 45 -50 0 -50 0 0 -45z m80 -5
c0 -16 -7 -20 -30 -20 -23 0 -30 4 -30 20 0 16 7 20 30 20 23 0 30 -4 30 -20z"/>
<path d="M13366 4421 c-20 -21 -24 -31 -15 -37 8 -4 21 3 36 20 42 49 24 64
-21 17z"/>
<path d="M13506 4415 c-20 -31 -61 -52 -115 -61 -53 -8 -53 -24 -1 -24 51 0
112 30 139 69 25 34 26 41 7 41 -7 0 -21 -11 -30 -25z"/>
<path d="M14560 3672 c0 -68 4 -93 15 -102 9 -7 17 -11 18 -9 2 2 1 46 -2 98
-4 62 -10 96 -18 99 -10 3 -13 -19 -13 -86z"/>
<path d="M14630 3745 c0 -8 7 -15 15 -15 8 0 15 7 15 15 0 8 -7 15 -15 15 -8
0 -15 -7 -15 -15z"/>
<path d="M14854 3747 c-10 -28 1 -180 14 -185 8 -2 12 8 12 34 l0 38 39 -38
c50 -49 72 -43 30 7 l-32 38 29 30 c24 25 25 29 9 29 -10 0 -32 -12 -47 -27
l-28 -27 0 52 c0 49 -15 78 -26 49z"/>
<path d="M14412 3658 c2 -59 7 -93 15 -95 8 -3 13 11 15 39 3 42 4 43 41 46
50 4 47 22 -4 22 -38 0 -40 1 -37 28 3 24 7 27 46 30 64 5 50 22 -18 22 l-61
0 3 -92z"/>
<path d="M15145 3718 c-23 -27 -26 -39 -22 -72 10 -70 69 -103 132 -74 24 11
36 48 15 48 -5 0 -10 -4 -10 -9 0 -5 -14 -14 -31 -20 -27 -9 -33 -8 -55 14
-29 30 -31 64 -3 99 23 29 46 33 75 11 24 -18 34 -19 34 0 0 20 -32 35 -73 35
-27 0 -41 -7 -62 -32z"/>
<path d="M15320 3654 l0 -97 50 5 c28 3 59 13 69 22 42 38 32 139 -16 157 -13
5 -42 9 -64 9 l-39 0 0 -96z m87 62 c31 -10 41 -67 19 -101 -12 -18 -25 -25
-50 -25 l-33 0 2 68 c1 37 3 67 4 68 4 2 39 -3 58 -10z"/>
<path d="M15532 3743 c-19 -7 -42 -58 -42 -93 0 -42 47 -90 88 -90 40 0 82 34
65 51 -9 9 -13 9 -13 2 0 -6 -13 -16 -30 -21 -65 -23 -110 69 -58 118 26 24
46 25 76 4 30 -21 41 -10 17 16 -17 19 -71 26 -103 13z"/>
<path d="M14745 3700 c-3 -4 -14 -6 -25 -3 -19 5 -20 0 -20 -67 0 -53 3 -71
13 -68 7 3 14 28 17 59 5 50 7 54 30 54 23 0 25 -4 30 -54 7 -78 30 -80 30 -3
0 36 -5 63 -12 69 -19 15 -57 22 -63 13z"/>
<path d="M14632 3633 c2 -42 8 -68 16 -71 9 -3 12 15 12 67 0 57 -3 71 -15 71
-13 0 -15 -12 -13 -67z"/>
<path d="M15000 3640 c0 -5 20 -10 45 -10 25 0 45 5 45 10 0 6 -20 10 -45 10
-25 0 -45 -4 -45 -10z"/>
<path d="M14435 2955 c-19 -18 -25 -35 -25 -68 0 -64 25 -92 84 -92 49 0 89
26 70 45 -8 8 -15 6 -24 -5 -27 -32 -90 -12 -105 34 -15 48 46 110 83 83 44
-32 74 -24 33 9 -33 27 -86 25 -116 -6z"/>
<path d="M14645 2946 c-9 -20 -26 -61 -39 -91 -13 -29 -22 -56 -18 -59 11 -12
23 -5 34 19 9 20 18 25 48 25 30 0 39 -5 48 -25 11 -24 23 -31 34 -19 8 8 -68
178 -82 182 -5 2 -17 -13 -25 -32z m43 -51 c10 -21 9 -27 -3 -31 -8 -4 -22 -4
-30 0 -12 4 -13 10 -3 31 6 14 14 25 18 25 4 0 12 -11 18 -25z"/>
<path d="M14750 2970 c0 -5 11 -10 25 -10 23 0 24 -2 27 -82 2 -52 7 -83 15
-85 9 -3 13 19 15 79 3 82 3 83 31 86 55 7 25 22 -43 22 -40 0 -70 -4 -70 -10z"/>
<path d="M12553 2568 c-10 -36 -10 -45 2 -54 18 -14 19 -30 3 -38 -10 -5 -10
-7 0 -12 6 -3 12 -23 12 -46 0 -38 2 -40 24 -34 14 3 28 1 32 -5 5 -8 9 -7 16
4 7 14 12 14 36 1 37 -19 102 -19 102 1 0 8 -9 15 -19 15 -14 0 -18 5 -14 20
3 11 12 20 19 20 8 0 14 7 14 15 0 8 -7 15 -15 15 -20 0 -19 10 3 26 16 13 16
13 0 14 -11 0 -18 8 -18 19 0 11 -8 22 -17 24 -10 3 -3 5 15 6 34 1 46 21 12
21 -10 0 -23 7 -28 16 -8 15 -12 14 -32 -6 -14 -14 -18 -25 -12 -29 7 -4 8
-12 2 -21 -17 -26 -11 -50 10 -50 11 0 20 -4 20 -10 0 -5 -9 -10 -20 -10 -27
0 -26 -28 2 -32 11 -2 22 -11 24 -21 2 -14 -3 -18 -24 -15 -25 3 -27 7 -32 63
-4 47 -9 61 -22 63 -19 4 -25 -22 -8 -33 11 -7 8 -64 -4 -83 -10 -17 -36 -2
-36 20 0 12 8 27 18 34 16 13 16 13 0 14 -19 0 -26 30 -8 30 6 0 10 5 10 10 0
6 -12 10 -26 10 -31 0 -28 23 4 28 25 4 30 22 7 22 -8 0 -15 7 -15 15 0 32
-26 13 -37 -27z m177 -37 c0 -6 -4 -13 -10 -16 -5 -3 -10 1 -10 9 0 9 5 16 10
16 6 0 10 -4 10 -9z"/>
<path d="M12932 2585 c-14 -30 -32 -33 -32 -5 0 17 -7 20 -40 20 l-40 0 0 -45
c0 -31 4 -44 13 -42 8 1 12 -15 13 -53 1 -42 0 -45 -3 -12 -2 23 -8 42 -12 42
-7 0 -22 -110 -17 -117 2 -2 22 3 46 10 43 12 67 37 36 37 -20 0 -21 17 -2 36
23 22 26 17 26 -34 l0 -48 55 0 55 0 0 46 c0 25 5 51 12 58 7 7 8 12 2 12 -6
0 -18 6 -28 13 -17 13 -17 15 -2 45 21 41 21 42 -14 42 -16 0 -30 5 -30 10 0
20 -27 9 -38 -15z m-52 -25 c0 -13 -7 -20 -20 -20 -13 0 -20 7 -20 20 0 13 7
20 20 20 13 0 20 -7 20 -20z m108 -1 c-2 -6 -8 -10 -13 -10 -5 0 -11 4 -13 10
-2 6 4 11 13 11 9 0 15 -5 13 -11z m-41 -35 c3 -9 -9 -17 -59 -42 -5 -2 -8 6
-8 18 0 12 5 18 10 15 6 -3 10 0 10 8 0 17 41 18 47 1z m49 -39 c18 -13 16
-14 -20 -15 -33 0 -37 2 -26 15 15 19 21 19 46 0z m4 -60 c0 -20 -5 -25 -23
-25 -30 0 -36 6 -30 31 3 12 14 19 29 19 19 0 24 -5 24 -25z"/>
<path d="M13480 2601 c0 -5 -10 -11 -22 -13 -15 -2 -24 -11 -26 -27 -5 -31 12
-41 68 -41 56 0 73 10 68 41 -2 17 -10 25 -28 27 -14 2 -29 8 -34 13 -13 12
-26 12 -26 0z m65 -51 c-3 -5 -24 -10 -46 -10 -21 0 -39 5 -39 10 0 6 21 10
46 10 27 0 43 -4 39 -10z"/>
<path d="M12630 2594 c0 -15 22 -44 31 -39 11 7 -7 45 -21 45 -6 0 -10 -3 -10
-6z"/>
<path d="M13080 2561 c0 -30 4 -40 20 -44 17 -4 20 -14 20 -56 0 -28 -4 -51
-10 -51 -5 0 -10 18 -10 40 0 22 -4 40 -10 40 -5 0 -10 -17 -10 -37 0 -21 -3
-48 -6 -60 -6 -21 -5 -21 42 -9 46 11 73 36 40 36 -23 0 -21 40 2 40 16 1 16
1 0 14 -19 14 -24 46 -8 46 6 0 10 18 10 40 l0 40 -40 0 c-40 0 -40 0 -40 -39z
m60 -1 c0 -13 -7 -20 -20 -20 -13 0 -20 7 -20 20 0 13 7 20 20 20 13 0 20 -7
20 -20z"/>
<path d="M13180 2506 c0 -52 -3 -101 -6 -110 -7 -19 26 -22 57 -5 24 13 16 29
-11 22 -17 -5 -20 0 -20 30 0 53 15 53 41 0 24 -47 52 -73 65 -60 4 4 -1 16
-11 27 -15 16 -16 22 -5 35 16 20 5 32 -14 16 -10 -8 -16 -9 -21 -1 -8 13 3
30 21 30 10 0 14 14 14 55 l0 55 -55 0 -55 0 0 -94z m88 62 c-4 -11 -20 -13
-58 -9 -5 1 -10 6 -10 11 0 6 16 10 36 10 24 0 34 -4 32 -12z m2 -48 c0 -5
-16 -10 -35 -10 -19 0 -35 5 -35 10 0 6 16 10 35 10 19 0 35 -4 35 -10z"/>
<path d="M13342 2558 c2 -24 7 -41 12 -40 5 2 13 -2 17 -10 12 -18 11 -98 -1
-98 -5 0 -10 18 -10 40 0 22 -4 40 -9 40 -9 0 -21 -98 -14 -112 4 -8 63 10 78
24 6 6 5 12 -5 18 -13 8 -13 12 -1 32 10 16 10 23 2 26 -14 5 -15 32 -1 32 6
0 10 20 10 45 l0 45 -41 0 -40 0 3 -42z m58 2 c0 -13 -7 -20 -20 -20 -19 0
-27 20 -13 33 13 14 33 6 33 -13z"/>
<path d="M13473 2492 c-49 -4 -59 -22 -13 -22 27 0 30 -3 30 -31 0 -19 -7 -37
-17 -45 -17 -12 -17 -13 0 -19 27 -11 47 13 47 56 0 35 3 39 25 39 14 0 25 4
25 9 0 11 -43 17 -97 13z"/>
<path d="M13436 2425 c-9 -35 -9 -39 2 -43 5 -1 15 11 21 29 14 40 14 39 -3
39 -8 0 -17 -11 -20 -25z"/>
<path d="M13530 2446 c0 -19 22 -56 34 -56 12 0 12 5 3 30 -6 17 -17 30 -24
30 -7 0 -13 -2 -13 -4z"/>
<path d="M14574 2187 c-10 -28 1 -180 14 -185 8 -2 12 8 12 34 l0 38 38 -37
c51 -50 72 -47 32 4 l-33 40 29 30 c24 25 25 29 9 29 -10 0 -32 -12 -47 -27
l-28 -27 0 52 c0 49 -15 78 -26 49z"/>
<path d="M15286 2192 c-3 -5 -4 -45 -3 -91 1 -59 6 -84 17 -91 18 -11 35 -1
21 13 -6 6 -11 48 -11 94 0 74 -8 100 -24 75z"/>
<path d="M15367 2193 c-11 -11 -8 -193 3 -193 6 0 10 13 10 28 0 43 9 44 42 6
27 -31 58 -45 58 -27 0 4 -15 22 -32 40 l-32 34 34 29 c32 27 33 30 13 30 -13
0 -32 -9 -43 -20 -30 -30 -37 -25 -38 26 -1 49 -4 58 -15 47z"/>
<path d="M15510 2186 c0 -9 7 -16 16 -16 9 0 14 5 12 12 -6 18 -28 21 -28 4z"/>
<path d="M14420 2170 c-17 -31 -2 -60 38 -77 54 -22 65 -33 51 -49 -13 -16
-65 -19 -74 -4 -9 14 -25 12 -25 -3 0 -8 11 -19 25 -25 94 -43 149 45 60 95
-22 12 -44 24 -50 26 -6 2 -4 11 4 21 11 13 23 16 49 11 26 -5 33 -3 30 7 -3
8 -24 14 -51 16 -38 3 -48 0 -57 -18z"/>
<path d="M14886 2123 c42 -115 46 -123 60 -123 8 0 22 19 31 42 l17 42 17 -42
c10 -23 24 -42 32 -42 9 0 24 33 41 88 30 100 30 102 13 102 -7 0 -21 -29 -32
-70 -11 -38 -22 -70 -25 -70 -3 0 -14 30 -25 67 -14 46 -26 69 -38 71 -15 3
-16 0 -7 -24 10 -26 -1 -86 -20 -107 -4 -5 -18 22 -31 60 -16 44 -30 69 -41
71 -16 3 -15 -4 8 -65z"/>
<path d="M15158 2143 c-32 -8 -19 -28 17 -28 44 0 50 -17 9 -25 -44 -9 -54
-18 -54 -44 0 -34 21 -46 71 -43 l44 3 3 49 c2 30 -2 57 -10 66 -14 18 -53 29
-80 22z m62 -88 c0 -20 -39 -40 -52 -27 -6 6 -8 18 -5 26 8 20 57 21 57 1z"/>
<path d="M14719 2118 c5 -13 18 -43 28 -68 21 -48 20 -70 -3 -70 -8 0 -14 -4
-14 -10 0 -15 36 -12 48 3 9 11 72 155 72 165 0 1 -6 2 -14 2 -7 0 -23 -21
-34 -47 l-20 -48 -20 48 c-12 26 -28 47 -36 47 -12 0 -13 -5 -7 -22z"/>
<path d="M15510 2069 c0 -52 3 -70 13 -67 7 3 13 29 15 71 2 55 0 67 -13 67
-12 0 -15 -14 -15 -71z"/>
<path d="M15572 2072 c4 -82 25 -98 30 -21 6 96 68 89 68 -8 0 -24 5 -43 10
-43 6 0 10 28 10 64 0 73 -3 76 -78 74 l-43 0 3 -66z"/>
<path d="M15735 2117 c-8 -12 -15 -32 -15 -45 0 -27 45 -76 63 -69 7 3 20 8
30 12 9 4 17 3 17 -3 0 -19 -33 -36 -68 -34 -35 2 -36 1 -17 -14 26 -20 74
-11 98 17 12 16 17 39 17 88 l0 67 -55 2 c-46 1 -57 -2 -70 -21z m87 -23 c15
-31 1 -57 -32 -62 -25 -4 -40 12 -40 44 0 46 53 60 72 18z"/>
<path d="M12910 1435 c0 -11 -12 -15 -51 -15 -66 0 -62 -24 4 -28 33 -2 47 -7
47 -18 0 -10 -12 -14 -41 -14 -26 0 -39 -4 -37 -11 6 -17 188 -18 188 -1 0 7
-15 12 -40 12 -29 0 -40 4 -40 15 0 11 12 15 50 15 38 0 50 4 50 15 0 11 -12
15 -50 15 -38 0 -50 4 -50 15 0 8 -7 15 -15 15 -8 0 -15 -7 -15 -15z"/>
<path d="M13173 1443 c-67 -3 -83 -7 -83 -19 0 -13 9 -15 45 -11 38 3 45 1 40
-12 -2 -9 -1 -22 4 -30 18 -27 1 -41 -51 -41 -35 0 -48 -4 -45 -12 2 -8 16
-12 35 -10 43 5 40 -10 -8 -43 -27 -19 -37 -32 -31 -38 11 -11 81 36 81 54 0
5 5 9 10 9 6 0 10 -18 10 -40 0 -22 5 -40 10 -40 6 0 10 18 10 40 0 22 5 40
10 40 6 0 10 -4 10 -9 0 -18 70 -65 81 -54 6 6 -4 19 -31 38 -48 33 -46 40 11
44 39 2 7 21 -36 21 -42 0 -44 1 -43 28 1 15 -2 35 -6 44 -7 14 0 17 41 20 26
2 47 8 46 13 -2 12 -5 12 -110 8z"/>
<path d="M13357 1413 c-24 -34 -28 -61 -6 -48 5 4 9 -8 9 -24 0 -29 2 -31 40
-31 22 0 40 -4 40 -10 0 -5 -22 -10 -50 -10 -56 0 -68 -17 -17 -23 l32 -4 -32
-13 c-18 -8 -33 -18 -33 -22 0 -18 21 -16 54 7 45 31 46 31 46 0 0 -16 6 -25
15 -25 9 0 15 9 15 24 l0 25 44 -25 c30 -17 47 -21 51 -14 8 13 9 11 -30 30
l-30 14 33 4 c50 5 38 22 -17 22 -28 0 -53 5 -56 10 -4 6 13 10 44 10 65 0 67
19 4 22 -44 1 -45 2 -10 5 44 5 50 23 7 23 -16 0 -30 5 -30 11 0 6 13 8 30 5
17 -2 30 0 30 5 0 5 -13 9 -30 9 -16 0 -30 5 -30 10 0 6 18 10 41 10 24 0 38
4 34 10 -3 6 -23 10 -44 10 -20 0 -43 6 -50 13 -11 10 -14 10 -18 0 -6 -15
-43 -17 -43 -3 0 20 -17 9 -43 -27z m88 -13 c4 -6 -7 -10 -24 -10 -17 0 -31 5
-31 10 0 6 11 10 24 10 14 0 28 -4 31 -10z m1 -33 c4 -4 -7 -7 -24 -7 -18 0
-32 5 -32 10 0 11 45 9 56 -3z m-8 -34 c-10 -2 -26 -2 -35 0 -10 3 -2 5 17 5
19 0 27 -2 18 -5z"/>
<path d="M12580 1325 c0 -96 3 -115 15 -115 8 0 15 5 15 10 0 6 25 10 55 10
30 0 55 -4 55 -10 0 -5 7 -10 15 -10 12 0 15 19 15 115 l0 115 -85 0 -85 0 0
-115z m144 70 c10 -38 0 -45 -60 -45 l-54 0 0 35 0 35 54 0 c49 0 54 -2 60
-25z m-4 -111 l0 -34 -55 0 -55 0 0 38 0 37 55 -3 55 -4 0 -34z"/>
<path d="M14412 1328 l3 -93 58 -3 c46 -2 57 0 57 13 0 11 -11 15 -45 15 -43
0 -45 1 -45 30 0 28 2 30 40 30 22 0 40 5 40 10 0 6 -18 10 -41 10 -38 0 -40
1 -37 28 2 21 8 27 28 28 52 2 60 4 60 14 0 6 -27 10 -60 10 l-61 0 3 -92z"/>
<path d="M14563 1328 l2 -93 58 -3 c46 -2 57 0 57 13 0 11 -11 15 -45 15 l-45
0 0 80 c0 63 -3 80 -14 80 -12 0 -15 -18 -13 -92z"/>
<path d="M14710 1325 c0 -73 3 -96 13 -92 6 2 12 20 12 39 0 20 3 39 6 43 4 3
24 -14 44 -39 21 -26 44 -46 51 -46 21 0 16 11 -26 60 l-40 45 42 42 c35 36
39 43 22 43 -11 0 -35 -16 -54 -35 -19 -19 -37 -35 -41 -35 -3 0 -6 14 -5 32
0 17 -5 33 -12 36 -9 3 -12 -21 -12 -93z"/>
<path d="M13247 1385 c-24 -33 -1 -46 24 -14 10 13 19 27 19 32 0 16 -26 5
-43 -18z"/>
<path d="M13100 1393 c0 -5 6 -18 14 -29 17 -22 35 -11 20 13 -12 19 -34 29
-34 16z"/>
<path d="M12872 1268 l3 -53 52 -3 c49 -3 54 -1 65 23 9 20 9 28 -1 38 -9 9
-13 7 -17 -11 -5 -18 -13 -22 -45 -22 -39 0 -39 0 -39 40 0 22 -5 40 -11 40
-6 0 -9 -21 -7 -52z"/>
<path d="M12917 1314 c-7 -7 13 -54 23 -54 15 0 18 13 8 36 -11 24 -20 29 -31
18z"/>
<path d="M12820 1275 c-12 -37 -9 -52 8 -41 15 9 24 58 14 68 -6 6 -14 -4 -22
-27z"/>
<path d="M13007 1270 c15 -38 27 -49 36 -32 8 13 -23 72 -37 72 -12 0 -12 -6
1 -40z"/>
</g>
</svg>
