<?xml version="1.0" encoding="UTF-8" standalone="no" ?>
<!DOCTYPE svg PUBLIC "-//W3C//DTD SVG 1.1//EN" "http://www.w3.org/Graphics/SVG/1.1/DTD/svg11.dtd">
<svg xmlns="http://www.w3.org/2000/svg" xmlns:xlink="http://www.w3.org/1999/xlink" version="1.1" width="91" height="91" viewBox="0 0 91 91" xml:space="preserve">
<desc>Created with Fabric.js 4.6.0</desc>
<defs>
</defs>
<g transform="matrix(1 0 0 1 45.5 45.76)" id="Hd8dloRQBjWoM10Eshw3h"  >
<path style="stroke: none; stroke-width: 1; stroke-dasharray: none; stroke-linecap: butt; stroke-dashoffset: 0; stroke-linejoin: miter; stroke-miterlimit: 4; fill: rgb(238,76,44); fill-rule: nonzero; opacity: 1;" vector-effect="non-scaling-stroke"  transform=" translate(-37.25, -585.8)" d="M 63.1 567.3 L 56.5 573.9 C 67.3 584.6999999999999 67.3 602.1 56.5 612.6999999999999 C 45.7 623.4999999999999 28.3 623.4999999999999 17.700000000000003 612.6999999999999 C 6.900000000000002 601.9 6.900000000000002 584.4999999999999 17.700000000000003 573.9 L 17.700000000000003 573.9 L 34.800000000000004 556.8 L 37.2 554.4 L 37.2 554.4 L 37.2 541.5 L 11.400000000000002 567.3 C -2.9999999999999982 581.6999999999999 -2.9999999999999982 604.9 11.400000000000002 619.3 C 25.800000000000004 633.6999999999999 49 633.6999999999999 63.10000000000001 619.3 C 77.5 604.8 77.5 581.7 63.1 567.3 z" stroke-linecap="round" />
</g>
<g transform="matrix(1 0 0 1 58.45 20.86)" id="ZCbB9yf-_9t9CupM7-W6i"  >
<path style="stroke: none; stroke-width: 1; stroke-dasharray: none; stroke-linecap: butt; stroke-dashoffset: 0; stroke-linejoin: miter; stroke-miterlimit: 4; fill: rgb(238,76,44); fill-rule: nonzero; opacity: 1;" vector-effect="non-scaling-stroke"  transform=" translate(-4.8, -4.8)" d="M 0 4.8 C 0 2.1490299999999998 2.14903 0 4.8 0 C 7.45097 0 9.6 2.14903 9.6 4.8 C 9.6 7.45097 7.45097 9.6 4.8 9.6 C 2.1490299999999998 9.6 0 7.45097 0 4.8 z" stroke-linecap="round" />
</g>
<g transform="matrix(1 0 0 1 575.16 304.6)" id="yqSnxLhAzcc0DUEdFyOnw"  >
<path style="stroke: none; stroke-width: 1; stroke-dasharray: none; stroke-linecap: butt; stroke-dashoffset: 0; stroke-linejoin: miter; stroke-miterlimit: 4; fill: rgb(255,255,255); fill-rule: nonzero; opacity: 1;" vector-effect="non-scaling-stroke"  transform=" translate(-464.2, -584.55)" d="M 479.5 629.1 L 479.5 590.6 C 479.5 580.1 475.3 575.6 466.9 575.6 C 460 575.6 453.4 579.2 448.59999999999997 584 L 448.59999999999997 629.1 L 440.49999999999994 629.1 L 440.49999999999994 541.7 L 448.59999999999997 539.9000000000001 C 448.59999999999997 539.9000000000001 448.59999999999997 577.2 448.59999999999997 577.5000000000001 C 454.9 571.2000000000002 462.7 568.2000000000002 469.29999999999995 568.2000000000002 C 480.69999999999993 568.2000000000002 487.9 575.7000000000002 487.9 588.6000000000001 L 487.9 629.2000000000002 L 479.5 629.2000000000002 z" stroke-linecap="round" />
</g>
</svg>